<svg xmlns="http://www.w3.org/2000/svg" xmlns:xlink="http://www.w3.org/1999/xlink" width="716" zoomAndPan="magnify" viewBox="0 0 537 151.500001" height="202" preserveAspectRatio="xMidYMid meet" version="1.0"><defs><g/><clipPath id="579a159cf6"><rect x="0" width="199" y="0" height="29"/></clipPath><clipPath id="a41755fba8"><path d="M 0.21875 0.550781 L 348.75 0.550781 L 348.75 94.082031 L 0.21875 94.082031 Z M 0.21875 0.550781 " clip-rule="nonzero"/></clipPath><clipPath id="644dffaa1b"><path d="M 68 0.550781 L 78 0.550781 L 78 71 L 68 71 Z M 68 0.550781 " clip-rule="nonzero"/></clipPath><clipPath id="3a22f6492a"><path d="M 151 0.550781 L 194 0.550781 L 194 71 L 151 71 Z M 151 0.550781 " clip-rule="nonzero"/></clipPath><clipPath id="c73d5436a3"><path d="M 304 0.550781 L 347 0.550781 L 347 71 L 304 71 Z M 304 0.550781 " clip-rule="nonzero"/></clipPath><clipPath id="727b74e7b4"><rect x="0" width="349" y="0" height="95"/></clipPath><clipPath id="14747e8242"><path d="M 114 29.28125 L 137.230469 29.28125 L 137.230469 53 L 114 53 Z M 114 29.28125 " clip-rule="nonzero"/></clipPath><clipPath id="9fc7ad26d8"><path d="M 103 39 L 127 39 L 127 63 L 103 63 Z M 103 39 " clip-rule="nonzero"/></clipPath><clipPath id="96260bf6f8"><path d="M 124.867188 39.878906 L 103.601562 39.878906 C 103.605469 45.175781 107.898438 49.46875 113.195312 49.472656 L 117.113281 49.472656 L 117.113281 53.269531 C 117.121094 58.5625 121.414062 62.855469 126.714844 62.855469 L 126.714844 41.722656 C 126.714844 40.707031 125.886719 39.878906 124.867188 39.878906 Z M 124.867188 39.878906 " clip-rule="nonzero"/></clipPath><linearGradient x1="0.990596" gradientTransform="matrix(23.111419, 0, 0, 22.976164, 103.602285, 39.879138)" y1="-0.00906483" x2="0.00926416" gradientUnits="userSpaceOnUse" y2="1.008931" id="2c169b3420"><stop stop-opacity="1" stop-color="rgb(0%, 32.159424%, 79.998779%)" offset="0"/><stop stop-opacity="1" stop-color="rgb(0%, 32.159424%, 79.998779%)" offset="0.0625"/><stop stop-opacity="1" stop-color="rgb(0%, 32.159424%, 79.998779%)" offset="0.078125"/><stop stop-opacity="1" stop-color="rgb(0.0823975%, 32.269287%, 80.110168%)" offset="0.0859375"/><stop stop-opacity="1" stop-color="rgb(0.343323%, 32.61261%, 80.461121%)" offset="0.0898438"/><stop stop-opacity="1" stop-color="rgb(0.521851%, 32.846069%, 80.700684%)" offset="0.09375"/><stop stop-opacity="1" stop-color="rgb(0.698853%, 33.079529%, 80.938721%)" offset="0.0976563"/><stop stop-opacity="1" stop-color="rgb(0.87738%, 33.314514%, 81.178284%)" offset="0.101563"/><stop stop-opacity="1" stop-color="rgb(1.054382%, 33.547974%, 81.416321%)" offset="0.105469"/><stop stop-opacity="1" stop-color="rgb(1.23291%, 33.782959%, 81.655884%)" offset="0.109375"/><stop stop-opacity="1" stop-color="rgb(1.411438%, 34.016418%, 81.893921%)" offset="0.113281"/><stop stop-opacity="1" stop-color="rgb(1.589966%, 34.251404%, 82.133484%)" offset="0.117188"/><stop stop-opacity="1" stop-color="rgb(1.766968%, 34.484863%, 82.371521%)" offset="0.121094"/><stop stop-opacity="1" stop-color="rgb(1.945496%, 34.719849%, 82.611084%)" offset="0.125"/><stop stop-opacity="1" stop-color="rgb(2.122498%, 34.953308%, 82.849121%)" offset="0.128906"/><stop stop-opacity="1" stop-color="rgb(2.301025%, 35.186768%, 83.088684%)" offset="0.132813"/><stop stop-opacity="1" stop-color="rgb(2.478027%, 35.420227%, 83.326721%)" offset="0.136719"/><stop stop-opacity="1" stop-color="rgb(2.656555%, 35.655212%, 83.566284%)" offset="0.140625"/><stop stop-opacity="1" stop-color="rgb(2.835083%, 35.888672%, 83.804321%)" offset="0.144531"/><stop stop-opacity="1" stop-color="rgb(3.013611%, 36.123657%, 84.043884%)" offset="0.148438"/><stop stop-opacity="1" stop-color="rgb(3.190613%, 36.357117%, 84.283447%)" offset="0.152344"/><stop stop-opacity="1" stop-color="rgb(3.369141%, 36.592102%, 84.52301%)" offset="0.15625"/><stop stop-opacity="1" stop-color="rgb(3.546143%, 36.825562%, 84.761047%)" offset="0.160156"/><stop stop-opacity="1" stop-color="rgb(3.72467%, 37.060547%, 85.00061%)" offset="0.164063"/><stop stop-opacity="1" stop-color="rgb(3.901672%, 37.294006%, 85.238647%)" offset="0.167969"/><stop stop-opacity="1" stop-color="rgb(4.0802%, 37.527466%, 85.47821%)" offset="0.171875"/><stop stop-opacity="1" stop-color="rgb(4.258728%, 37.760925%, 85.716248%)" offset="0.175781"/><stop stop-opacity="1" stop-color="rgb(4.437256%, 37.995911%, 85.955811%)" offset="0.179688"/><stop stop-opacity="1" stop-color="rgb(4.614258%, 38.22937%, 86.193848%)" offset="0.183594"/><stop stop-opacity="1" stop-color="rgb(4.792786%, 38.464355%, 86.433411%)" offset="0.1875"/><stop stop-opacity="1" stop-color="rgb(4.969788%, 38.697815%, 86.671448%)" offset="0.191406"/><stop stop-opacity="1" stop-color="rgb(5.148315%, 38.9328%, 86.911011%)" offset="0.195313"/><stop stop-opacity="1" stop-color="rgb(5.325317%, 39.16626%, 87.149048%)" offset="0.199219"/><stop stop-opacity="1" stop-color="rgb(5.503845%, 39.401245%, 87.388611%)" offset="0.203125"/><stop stop-opacity="1" stop-color="rgb(5.682373%, 39.634705%, 87.626648%)" offset="0.207031"/><stop stop-opacity="1" stop-color="rgb(5.860901%, 39.86969%, 87.866211%)" offset="0.210938"/><stop stop-opacity="1" stop-color="rgb(6.037903%, 40.103149%, 88.104248%)" offset="0.214844"/><stop stop-opacity="1" stop-color="rgb(6.216431%, 40.336609%, 88.343811%)" offset="0.21875"/><stop stop-opacity="1" stop-color="rgb(6.393433%, 40.570068%, 88.581848%)" offset="0.222656"/><stop stop-opacity="1" stop-color="rgb(6.57196%, 40.805054%, 88.821411%)" offset="0.226563"/><stop stop-opacity="1" stop-color="rgb(6.748962%, 41.038513%, 89.059448%)" offset="0.230469"/><stop stop-opacity="1" stop-color="rgb(6.92749%, 41.273499%, 89.299011%)" offset="0.234375"/><stop stop-opacity="1" stop-color="rgb(7.106018%, 41.506958%, 89.537048%)" offset="0.238281"/><stop stop-opacity="1" stop-color="rgb(7.284546%, 41.741943%, 89.776611%)" offset="0.242188"/><stop stop-opacity="1" stop-color="rgb(7.461548%, 41.975403%, 90.014648%)" offset="0.246094"/><stop stop-opacity="1" stop-color="rgb(7.640076%, 42.210388%, 90.254211%)" offset="0.25"/><stop stop-opacity="1" stop-color="rgb(7.817078%, 42.443848%, 90.493774%)" offset="0.253906"/><stop stop-opacity="1" stop-color="rgb(7.995605%, 42.677307%, 90.733337%)" offset="0.257813"/><stop stop-opacity="1" stop-color="rgb(8.172607%, 42.910767%, 90.971375%)" offset="0.261719"/><stop stop-opacity="1" stop-color="rgb(8.351135%, 43.145752%, 91.210938%)" offset="0.265625"/><stop stop-opacity="1" stop-color="rgb(8.528137%, 43.379211%, 91.448975%)" offset="0.269531"/><stop stop-opacity="1" stop-color="rgb(8.706665%, 43.614197%, 91.688538%)" offset="0.273438"/><stop stop-opacity="1" stop-color="rgb(8.885193%, 43.847656%, 91.926575%)" offset="0.277344"/><stop stop-opacity="1" stop-color="rgb(9.063721%, 44.082642%, 92.166138%)" offset="0.28125"/><stop stop-opacity="1" stop-color="rgb(9.240723%, 44.316101%, 92.404175%)" offset="0.285156"/><stop stop-opacity="1" stop-color="rgb(9.41925%, 44.551086%, 92.643738%)" offset="0.289063"/><stop stop-opacity="1" stop-color="rgb(9.596252%, 44.784546%, 92.881775%)" offset="0.292969"/><stop stop-opacity="1" stop-color="rgb(9.77478%, 45.018005%, 93.121338%)" offset="0.296875"/><stop stop-opacity="1" stop-color="rgb(9.951782%, 45.251465%, 93.359375%)" offset="0.300781"/><stop stop-opacity="1" stop-color="rgb(10.13031%, 45.48645%, 93.598938%)" offset="0.304688"/><stop stop-opacity="1" stop-color="rgb(10.308838%, 45.71991%, 93.836975%)" offset="0.308594"/><stop stop-opacity="1" stop-color="rgb(10.487366%, 45.954895%, 94.076538%)" offset="0.3125"/><stop stop-opacity="1" stop-color="rgb(10.664368%, 46.188354%, 94.314575%)" offset="0.316406"/><stop stop-opacity="1" stop-color="rgb(10.842896%, 46.42334%, 94.554138%)" offset="0.320313"/><stop stop-opacity="1" stop-color="rgb(11.019897%, 46.656799%, 94.792175%)" offset="0.324219"/><stop stop-opacity="1" stop-color="rgb(11.198425%, 46.891785%, 95.031738%)" offset="0.328125"/><stop stop-opacity="1" stop-color="rgb(11.375427%, 47.125244%, 95.269775%)" offset="0.332031"/><stop stop-opacity="1" stop-color="rgb(11.553955%, 47.360229%, 95.509338%)" offset="0.335938"/><stop stop-opacity="1" stop-color="rgb(11.732483%, 47.593689%, 95.747375%)" offset="0.339844"/><stop stop-opacity="1" stop-color="rgb(11.911011%, 47.827148%, 95.986938%)" offset="0.34375"/><stop stop-opacity="1" stop-color="rgb(12.088013%, 48.060608%, 96.224976%)" offset="0.347656"/><stop stop-opacity="1" stop-color="rgb(12.266541%, 48.295593%, 96.464539%)" offset="0.351562"/><stop stop-opacity="1" stop-color="rgb(12.443542%, 48.529053%, 96.702576%)" offset="0.355469"/><stop stop-opacity="1" stop-color="rgb(12.62207%, 48.764038%, 96.942139%)" offset="0.359375"/><stop stop-opacity="1" stop-color="rgb(12.799072%, 48.997498%, 97.181702%)" offset="0.363281"/><stop stop-opacity="1" stop-color="rgb(12.9776%, 49.232483%, 97.421265%)" offset="0.367188"/><stop stop-opacity="1" stop-color="rgb(13.156128%, 49.465942%, 97.659302%)" offset="0.371094"/><stop stop-opacity="1" stop-color="rgb(13.334656%, 49.700928%, 97.898865%)" offset="0.375"/><stop stop-opacity="1" stop-color="rgb(13.511658%, 49.934387%, 98.136902%)" offset="0.378906"/><stop stop-opacity="1" stop-color="rgb(13.690186%, 50.167847%, 98.376465%)" offset="0.382813"/><stop stop-opacity="1" stop-color="rgb(13.867188%, 50.401306%, 98.614502%)" offset="0.386719"/><stop stop-opacity="1" stop-color="rgb(14.045715%, 50.636292%, 98.854065%)" offset="0.390625"/><stop stop-opacity="1" stop-color="rgb(14.222717%, 50.869751%, 99.092102%)" offset="0.394531"/><stop stop-opacity="1" stop-color="rgb(14.401245%, 51.104736%, 99.331665%)" offset="0.398438"/><stop stop-opacity="1" stop-color="rgb(14.579773%, 51.338196%, 99.569702%)" offset="0.402344"/><stop stop-opacity="1" stop-color="rgb(14.758301%, 51.573181%, 99.809265%)" offset="0.40625"/><stop stop-opacity="1" stop-color="rgb(14.828491%, 51.66626%, 99.90387%)" offset="0.4375"/><stop stop-opacity="1" stop-color="rgb(14.898682%, 51.759338%, 100%)" offset="0.490831"/><stop stop-opacity="1" stop-color="rgb(14.898682%, 51.759338%, 100%)" offset="0.5"/><stop stop-opacity="1" stop-color="rgb(14.898682%, 51.759338%, 100%)" offset="0.509169"/><stop stop-opacity="1" stop-color="rgb(14.898682%, 51.759338%, 100%)" offset="1"/></linearGradient><clipPath id="a156dac456"><path d="M 93.074219 50 L 117 50 L 117 73.441406 L 93.074219 73.441406 Z M 93.074219 50 " clip-rule="nonzero"/></clipPath><clipPath id="b4511964c4"><path d="M 114.339844 50.46875 L 93.074219 50.46875 C 93.074219 55.769531 97.371094 60.070312 102.671875 60.070312 L 106.605469 60.070312 L 106.605469 63.851562 C 106.605469 69.144531 110.894531 73.433594 116.183594 73.445312 L 116.183594 52.316406 C 116.183594 51.292969 115.359375 50.46875 114.339844 50.46875 Z M 114.339844 50.46875 " clip-rule="nonzero"/></clipPath><linearGradient x1="1.00555" gradientTransform="matrix(23.111419, 0, 0, 22.974778, 93.073977, 50.469362)" y1="0.00567492" x2="-0.00537345" gradientUnits="userSpaceOnUse" y2="0.994355" id="e61c63a426"><stop stop-opacity="1" stop-color="rgb(0%, 32.159424%, 79.998779%)" offset="0"/><stop stop-opacity="1" stop-color="rgb(0%, 32.159424%, 79.998779%)" offset="0.0625"/><stop stop-opacity="1" stop-color="rgb(0%, 32.159424%, 79.998779%)" offset="0.078125"/><stop stop-opacity="1" stop-color="rgb(0.131226%, 32.331848%, 80.174255%)" offset="0.0859375"/><stop stop-opacity="1" stop-color="rgb(0.419617%, 32.713318%, 80.563354%)" offset="0.0898438"/><stop stop-opacity="1" stop-color="rgb(0.578308%, 32.922363%, 80.776978%)" offset="0.09375"/><stop stop-opacity="1" stop-color="rgb(0.737%, 33.129883%, 80.989075%)" offset="0.0976562"/><stop stop-opacity="1" stop-color="rgb(0.895691%, 33.338928%, 81.202698%)" offset="0.101562"/><stop stop-opacity="1" stop-color="rgb(1.054382%, 33.546448%, 81.414795%)" offset="0.105469"/><stop stop-opacity="1" stop-color="rgb(1.213074%, 33.755493%, 81.628418%)" offset="0.109375"/><stop stop-opacity="1" stop-color="rgb(1.371765%, 33.964539%, 81.840515%)" offset="0.113281"/><stop stop-opacity="1" stop-color="rgb(1.530457%, 34.173584%, 82.054138%)" offset="0.117188"/><stop stop-opacity="1" stop-color="rgb(1.687622%, 34.381104%, 82.266235%)" offset="0.121094"/><stop stop-opacity="1" stop-color="rgb(1.846313%, 34.590149%, 82.479858%)" offset="0.125"/><stop stop-opacity="1" stop-color="rgb(2.005005%, 34.797668%, 82.691956%)" offset="0.128906"/><stop stop-opacity="1" stop-color="rgb(2.163696%, 35.006714%, 82.905579%)" offset="0.132812"/><stop stop-opacity="1" stop-color="rgb(2.322388%, 35.214233%, 83.117676%)" offset="0.136719"/><stop stop-opacity="1" stop-color="rgb(2.481079%, 35.423279%, 83.331299%)" offset="0.140625"/><stop stop-opacity="1" stop-color="rgb(2.639771%, 35.632324%, 83.543396%)" offset="0.144531"/><stop stop-opacity="1" stop-color="rgb(2.798462%, 35.84137%, 83.755493%)" offset="0.148438"/><stop stop-opacity="1" stop-color="rgb(2.957153%, 36.048889%, 83.96759%)" offset="0.152344"/><stop stop-opacity="1" stop-color="rgb(3.115845%, 36.257935%, 84.181213%)" offset="0.15625"/><stop stop-opacity="1" stop-color="rgb(3.27301%, 36.465454%, 84.393311%)" offset="0.160156"/><stop stop-opacity="1" stop-color="rgb(3.431702%, 36.6745%, 84.606934%)" offset="0.164062"/><stop stop-opacity="1" stop-color="rgb(3.590393%, 36.883545%, 84.819031%)" offset="0.167969"/><stop stop-opacity="1" stop-color="rgb(3.749084%, 37.09259%, 85.032654%)" offset="0.171875"/><stop stop-opacity="1" stop-color="rgb(3.907776%, 37.30011%, 85.244751%)" offset="0.175781"/><stop stop-opacity="1" stop-color="rgb(4.066467%, 37.509155%, 85.458374%)" offset="0.179688"/><stop stop-opacity="1" stop-color="rgb(4.225159%, 37.716675%, 85.670471%)" offset="0.183594"/><stop stop-opacity="1" stop-color="rgb(4.38385%, 37.92572%, 85.884094%)" offset="0.1875"/><stop stop-opacity="1" stop-color="rgb(4.541016%, 38.134766%, 86.096191%)" offset="0.191406"/><stop stop-opacity="1" stop-color="rgb(4.699707%, 38.343811%, 86.309814%)" offset="0.195312"/><stop stop-opacity="1" stop-color="rgb(4.858398%, 38.551331%, 86.521912%)" offset="0.199219"/><stop stop-opacity="1" stop-color="rgb(5.01709%, 38.760376%, 86.735535%)" offset="0.203125"/><stop stop-opacity="1" stop-color="rgb(5.175781%, 38.967896%, 86.947632%)" offset="0.207031"/><stop stop-opacity="1" stop-color="rgb(5.334473%, 39.176941%, 87.159729%)" offset="0.210938"/><stop stop-opacity="1" stop-color="rgb(5.493164%, 39.38446%, 87.371826%)" offset="0.214844"/><stop stop-opacity="1" stop-color="rgb(5.651855%, 39.593506%, 87.585449%)" offset="0.21875"/><stop stop-opacity="1" stop-color="rgb(5.809021%, 39.802551%, 87.797546%)" offset="0.222656"/><stop stop-opacity="1" stop-color="rgb(5.967712%, 40.011597%, 88.011169%)" offset="0.226563"/><stop stop-opacity="1" stop-color="rgb(6.126404%, 40.219116%, 88.223267%)" offset="0.230469"/><stop stop-opacity="1" stop-color="rgb(6.285095%, 40.428162%, 88.43689%)" offset="0.234375"/><stop stop-opacity="1" stop-color="rgb(6.443787%, 40.635681%, 88.648987%)" offset="0.238281"/><stop stop-opacity="1" stop-color="rgb(6.602478%, 40.844727%, 88.86261%)" offset="0.242188"/><stop stop-opacity="1" stop-color="rgb(6.761169%, 41.053772%, 89.074707%)" offset="0.246094"/><stop stop-opacity="1" stop-color="rgb(6.919861%, 41.262817%, 89.28833%)" offset="0.25"/><stop stop-opacity="1" stop-color="rgb(7.077026%, 41.470337%, 89.500427%)" offset="0.253906"/><stop stop-opacity="1" stop-color="rgb(7.235718%, 41.679382%, 89.71405%)" offset="0.257812"/><stop stop-opacity="1" stop-color="rgb(7.394409%, 41.886902%, 89.926147%)" offset="0.261719"/><stop stop-opacity="1" stop-color="rgb(7.553101%, 42.095947%, 90.139771%)" offset="0.265625"/><stop stop-opacity="1" stop-color="rgb(7.711792%, 42.304993%, 90.351868%)" offset="0.269531"/><stop stop-opacity="1" stop-color="rgb(7.870483%, 42.514038%, 90.563965%)" offset="0.273437"/><stop stop-opacity="1" stop-color="rgb(8.029175%, 42.721558%, 90.776062%)" offset="0.277344"/><stop stop-opacity="1" stop-color="rgb(8.187866%, 42.930603%, 90.989685%)" offset="0.28125"/><stop stop-opacity="1" stop-color="rgb(8.345032%, 43.138123%, 91.201782%)" offset="0.285156"/><stop stop-opacity="1" stop-color="rgb(8.503723%, 43.347168%, 91.415405%)" offset="0.289063"/><stop stop-opacity="1" stop-color="rgb(8.662415%, 43.554688%, 91.627502%)" offset="0.292969"/><stop stop-opacity="1" stop-color="rgb(8.821106%, 43.763733%, 91.841125%)" offset="0.296875"/><stop stop-opacity="1" stop-color="rgb(8.979797%, 43.972778%, 92.053223%)" offset="0.300781"/><stop stop-opacity="1" stop-color="rgb(9.138489%, 44.181824%, 92.266846%)" offset="0.304688"/><stop stop-opacity="1" stop-color="rgb(9.29718%, 44.389343%, 92.478943%)" offset="0.308594"/><stop stop-opacity="1" stop-color="rgb(9.455872%, 44.598389%, 92.692566%)" offset="0.3125"/><stop stop-opacity="1" stop-color="rgb(9.614563%, 44.805908%, 92.904663%)" offset="0.316406"/><stop stop-opacity="1" stop-color="rgb(9.773254%, 45.014954%, 93.118286%)" offset="0.320312"/><stop stop-opacity="1" stop-color="rgb(9.93042%, 45.223999%, 93.330383%)" offset="0.324219"/><stop stop-opacity="1" stop-color="rgb(10.089111%, 45.433044%, 93.544006%)" offset="0.328125"/><stop stop-opacity="1" stop-color="rgb(10.247803%, 45.640564%, 93.756104%)" offset="0.332031"/><stop stop-opacity="1" stop-color="rgb(10.406494%, 45.849609%, 93.968201%)" offset="0.335937"/><stop stop-opacity="1" stop-color="rgb(10.565186%, 46.057129%, 94.180298%)" offset="0.339844"/><stop stop-opacity="1" stop-color="rgb(10.723877%, 46.266174%, 94.393921%)" offset="0.34375"/><stop stop-opacity="1" stop-color="rgb(10.882568%, 46.47522%, 94.606018%)" offset="0.347656"/><stop stop-opacity="1" stop-color="rgb(11.04126%, 46.684265%, 94.819641%)" offset="0.351563"/><stop stop-opacity="1" stop-color="rgb(11.198425%, 46.891785%, 95.031738%)" offset="0.355469"/><stop stop-opacity="1" stop-color="rgb(11.357117%, 47.10083%, 95.245361%)" offset="0.359375"/><stop stop-opacity="1" stop-color="rgb(11.515808%, 47.30835%, 95.457458%)" offset="0.363281"/><stop stop-opacity="1" stop-color="rgb(11.6745%, 47.517395%, 95.671082%)" offset="0.367188"/><stop stop-opacity="1" stop-color="rgb(11.833191%, 47.724915%, 95.883179%)" offset="0.371094"/><stop stop-opacity="1" stop-color="rgb(11.991882%, 47.93396%, 96.096802%)" offset="0.375"/><stop stop-opacity="1" stop-color="rgb(12.150574%, 48.143005%, 96.308899%)" offset="0.378906"/><stop stop-opacity="1" stop-color="rgb(12.309265%, 48.352051%, 96.522522%)" offset="0.382812"/><stop stop-opacity="1" stop-color="rgb(12.466431%, 48.55957%, 96.734619%)" offset="0.386719"/><stop stop-opacity="1" stop-color="rgb(12.625122%, 48.768616%, 96.948242%)" offset="0.390625"/><stop stop-opacity="1" stop-color="rgb(12.783813%, 48.976135%, 97.160339%)" offset="0.394531"/><stop stop-opacity="1" stop-color="rgb(12.942505%, 49.185181%, 97.372437%)" offset="0.398437"/><stop stop-opacity="1" stop-color="rgb(13.101196%, 49.394226%, 97.584534%)" offset="0.402344"/><stop stop-opacity="1" stop-color="rgb(13.259888%, 49.603271%, 97.798157%)" offset="0.40625"/><stop stop-opacity="1" stop-color="rgb(13.418579%, 49.810791%, 98.010254%)" offset="0.410156"/><stop stop-opacity="1" stop-color="rgb(13.577271%, 50.019836%, 98.223877%)" offset="0.414063"/><stop stop-opacity="1" stop-color="rgb(13.734436%, 50.227356%, 98.435974%)" offset="0.417969"/><stop stop-opacity="1" stop-color="rgb(13.893127%, 50.436401%, 98.649597%)" offset="0.421875"/><stop stop-opacity="1" stop-color="rgb(14.051819%, 50.645447%, 98.861694%)" offset="0.425781"/><stop stop-opacity="1" stop-color="rgb(14.21051%, 50.854492%, 99.075317%)" offset="0.429688"/><stop stop-opacity="1" stop-color="rgb(14.369202%, 51.062012%, 99.287415%)" offset="0.433594"/><stop stop-opacity="1" stop-color="rgb(14.527893%, 51.271057%, 99.501038%)" offset="0.4375"/><stop stop-opacity="1" stop-color="rgb(14.686584%, 51.478577%, 99.713135%)" offset="0.441406"/><stop stop-opacity="1" stop-color="rgb(14.845276%, 51.687622%, 99.926758%)" offset="0.445313"/><stop stop-opacity="1" stop-color="rgb(14.871216%, 51.722717%, 99.963379%)" offset="0.453125"/><stop stop-opacity="1" stop-color="rgb(14.898682%, 51.759338%, 100%)" offset="0.46875"/><stop stop-opacity="1" stop-color="rgb(14.898682%, 51.759338%, 100%)" offset="0.4944"/><stop stop-opacity="1" stop-color="rgb(14.898682%, 51.759338%, 100%)" offset="0.5"/><stop stop-opacity="1" stop-color="rgb(14.898682%, 51.759338%, 100%)" offset="0.5056"/><stop stop-opacity="1" stop-color="rgb(14.898682%, 51.759338%, 100%)" offset="1"/></linearGradient><clipPath id="e79cebc47a"><rect x="0" width="349" y="0" height="95"/></clipPath></defs><g transform="matrix(1, 0, 0, 1, 99, 114)"><g clip-path="url(#579a159cf6)"><g fill="#2b2b2b" fill-opacity="1"><g transform="translate(0.780268, 21.378677)"><g><path d="M 11.65625 -8.09375 C 12.21875 -7.6875 12.660156 -7.164062 12.984375 -6.53125 C 13.316406 -5.90625 13.484375 -5.222656 13.484375 -4.484375 C 13.484375 -3.859375 13.367188 -3.269531 13.140625 -2.71875 C 12.910156 -2.175781 12.59375 -1.703125 12.1875 -1.296875 C 11.78125 -0.890625 11.304688 -0.570312 10.765625 -0.34375 C 10.222656 -0.113281 9.632812 0 9 0 L 1.390625 0 L 1.390625 -16.296875 L 9 -16.296875 C 9.632812 -16.296875 10.222656 -16.171875 10.765625 -15.921875 C 11.304688 -15.671875 11.78125 -15.335938 12.1875 -14.921875 C 12.59375 -14.503906 12.910156 -14.015625 13.140625 -13.453125 C 13.367188 -12.898438 13.484375 -12.320312 13.484375 -11.71875 C 13.484375 -10.957031 13.316406 -10.265625 12.984375 -9.640625 C 12.660156 -9.023438 12.21875 -8.507812 11.65625 -8.09375 Z M 9 -14.546875 L 3.125 -14.546875 L 3.125 -1.75 L 9 -1.75 C 9.78125 -1.75 10.429688 -2.007812 10.953125 -2.53125 C 11.484375 -3.0625 11.75 -3.710938 11.75 -4.484375 C 11.75 -5.265625 11.484375 -5.914062 10.953125 -6.4375 C 10.429688 -6.96875 9.78125 -7.234375 9 -7.234375 L 6.40625 -7.234375 L 5.40625 -8.96875 L 9 -8.96875 C 9.78125 -8.96875 10.429688 -9.234375 10.953125 -9.765625 C 11.484375 -10.296875 11.75 -10.945312 11.75 -11.71875 C 11.75 -12.101562 11.671875 -12.46875 11.515625 -12.8125 C 11.367188 -13.15625 11.171875 -13.453125 10.921875 -13.703125 C 10.679688 -13.960938 10.394531 -14.164062 10.0625 -14.3125 C 9.726562 -14.46875 9.375 -14.546875 9 -14.546875 Z M 9 -14.546875 "/></g></g></g><g fill="#2b2b2b" fill-opacity="1"><g transform="translate(15.651622, 21.378677)"><g><path d="M 8.84375 -6.453125 L 1.390625 -16.296875 L 3.578125 -16.296875 L 9.703125 -8.234375 L 15.453125 -16.296875 L 17.59375 -16.296875 L 10.578125 -6.453125 L 10.578125 0 L 8.84375 0 Z M 8.84375 -6.453125 "/></g></g></g><g fill="#2b2b2b" fill-opacity="1"><g transform="translate(34.621594, 21.378677)"><g/></g></g><g fill="#2b2b2b" fill-opacity="1"><g transform="translate(42.929615, 21.378677)"><g><path d="M 3.125 -16.296875 L 3.125 -1.75 L 13.40625 -1.75 L 14.40625 0 L 1.390625 0 L 1.390625 -16.296875 Z M 3.125 -16.296875 "/></g></g></g><g fill="#2b2b2b" fill-opacity="1"><g transform="translate(58.714848, 21.378677)"><g><path d="M 3.125 -13.234375 L 3.125 -7.125 C 3.125 -5.9375 3.390625 -4.945312 3.921875 -4.15625 C 4.460938 -3.375 5.125 -2.789062 5.90625 -2.40625 C 6.695312 -2.019531 7.550781 -1.828125 8.46875 -1.828125 C 9.394531 -1.828125 10.25 -2.023438 11.03125 -2.421875 C 11.820312 -2.816406 12.476562 -3.40625 13 -4.1875 C 13.53125 -4.976562 13.796875 -5.960938 13.796875 -7.140625 L 13.796875 -16.3125 L 15.546875 -16.3125 L 15.546875 -7.125 C 15.546875 -6.101562 15.347656 -5.160156 14.953125 -4.296875 C 14.566406 -3.441406 14.054688 -2.703125 13.421875 -2.078125 C 12.785156 -1.453125 12.050781 -0.957031 11.21875 -0.59375 C 10.382812 -0.238281 9.519531 -0.0390625 8.625 0 C 7.726562 0.0390625 6.832031 -0.109375 5.9375 -0.453125 C 5.039062 -0.796875 4.21875 -1.347656 3.46875 -2.109375 C 2.757812 -2.804688 2.234375 -3.59375 1.890625 -4.46875 C 1.554688 -5.351562 1.390625 -6.238281 1.390625 -7.125 L 1.390625 -16.3125 Z M 3.125 -13.234375 "/></g></g></g><g fill="#2b2b2b" fill-opacity="1"><g transform="translate(75.635511, 21.378677)"><g><path d="M 14.953125 -16.375 L 14.953125 0.859375 L 3.125 -11.78125 L 3.125 0 L 1.390625 0 L 1.390625 -16.375 L 13.21875 -3.734375 L 13.21875 -13.296875 Z M 14.953125 -16.375 "/></g></g></g><g fill="#2b2b2b" fill-opacity="1"><g transform="translate(91.974608, 21.378677)"><g><path d="M 1.390625 0 L 8.84375 -16.171875 L 16.296875 0 L 14.34375 0 L 8.84375 -12 L 3.296875 0 Z M 1.390625 0 "/></g></g></g><g fill="#2b2b2b" fill-opacity="1"><g transform="translate(109.642987, 21.378677)"><g><path d="M 8.96875 -5.90625 L 14.546875 0 L 12.15625 0 L 4.953125 -7.59375 L 8.34375 -7.59375 C 8.820312 -7.59375 9.269531 -7.679688 9.6875 -7.859375 C 10.101562 -8.046875 10.46875 -8.296875 10.78125 -8.609375 C 11.09375 -8.929688 11.335938 -9.300781 11.515625 -9.71875 C 11.703125 -10.144531 11.796875 -10.597656 11.796875 -11.078125 C 11.796875 -11.554688 11.703125 -12.003906 11.515625 -12.421875 C 11.335938 -12.835938 11.09375 -13.203125 10.78125 -13.515625 C 10.46875 -13.828125 10.097656 -14.078125 9.671875 -14.265625 C 9.242188 -14.453125 8.800781 -14.546875 8.34375 -14.546875 L 3.125 -14.546875 L 3.125 0 L 1.390625 0 L 1.390625 -16.296875 L 8.34375 -16.296875 C 9.0625 -16.296875 9.734375 -16.15625 10.359375 -15.875 C 10.984375 -15.59375 11.53125 -15.21875 12 -14.75 C 12.476562 -14.28125 12.851562 -13.726562 13.125 -13.09375 C 13.40625 -12.46875 13.546875 -11.796875 13.546875 -11.078125 C 13.546875 -10.410156 13.429688 -9.78125 13.203125 -9.1875 C 12.972656 -8.601562 12.648438 -8.078125 12.234375 -7.609375 C 11.816406 -7.148438 11.332031 -6.769531 10.78125 -6.46875 C 10.226562 -6.164062 9.625 -5.976562 8.96875 -5.90625 Z M 8.96875 -5.90625 "/></g></g></g><g fill="#2b2b2b" fill-opacity="1"><g transform="translate(125.566692, 21.378677)"><g/></g></g><g fill="#2b2b2b" fill-opacity="1"><g transform="translate(133.874713, 21.378677)"><g><path d="M 3.125 -16.296875 L 3.125 -1.75 L 13.40625 -1.75 L 14.40625 0 L 1.390625 0 L 1.390625 -16.296875 Z M 3.125 -16.296875 "/></g></g></g><g fill="#2b2b2b" fill-opacity="1"><g transform="translate(149.659945, 21.378677)"><g><path d="M 1.390625 0 L 8.84375 -16.171875 L 16.296875 0 L 14.34375 0 L 8.84375 -12 L 3.296875 0 Z M 1.390625 0 "/></g></g></g><g fill="#2b2b2b" fill-opacity="1"><g transform="translate(167.328324, 21.378677)"><g><path d="M 11.65625 -8.09375 C 12.21875 -7.6875 12.660156 -7.164062 12.984375 -6.53125 C 13.316406 -5.90625 13.484375 -5.222656 13.484375 -4.484375 C 13.484375 -3.859375 13.367188 -3.269531 13.140625 -2.71875 C 12.910156 -2.175781 12.59375 -1.703125 12.1875 -1.296875 C 11.78125 -0.890625 11.304688 -0.570312 10.765625 -0.34375 C 10.222656 -0.113281 9.632812 0 9 0 L 1.390625 0 L 1.390625 -16.296875 L 9 -16.296875 C 9.632812 -16.296875 10.222656 -16.171875 10.765625 -15.921875 C 11.304688 -15.671875 11.78125 -15.335938 12.1875 -14.921875 C 12.59375 -14.503906 12.910156 -14.015625 13.140625 -13.453125 C 13.367188 -12.898438 13.484375 -12.320312 13.484375 -11.71875 C 13.484375 -10.957031 13.316406 -10.265625 12.984375 -9.640625 C 12.660156 -9.023438 12.21875 -8.507812 11.65625 -8.09375 Z M 9 -14.546875 L 3.125 -14.546875 L 3.125 -1.75 L 9 -1.75 C 9.78125 -1.75 10.429688 -2.007812 10.953125 -2.53125 C 11.484375 -3.0625 11.75 -3.710938 11.75 -4.484375 C 11.75 -5.265625 11.484375 -5.914062 10.953125 -6.4375 C 10.429688 -6.96875 9.78125 -7.234375 9 -7.234375 L 6.40625 -7.234375 L 5.40625 -8.96875 L 9 -8.96875 C 9.78125 -8.96875 10.429688 -9.234375 10.953125 -9.765625 C 11.484375 -10.296875 11.75 -10.945312 11.75 -11.71875 C 11.75 -12.101562 11.671875 -12.46875 11.515625 -12.8125 C 11.367188 -13.15625 11.171875 -13.453125 10.921875 -13.703125 C 10.679688 -13.960938 10.394531 -14.164062 10.0625 -14.3125 C 9.726562 -14.46875 9.375 -14.546875 9 -14.546875 Z M 9 -14.546875 "/></g></g></g><g fill="#2b2b2b" fill-opacity="1"><g transform="translate(182.199678, 21.378677)"><g><path d="M 2.109375 -1.75 L 9.703125 -1.75 C 10.085938 -1.75 10.445312 -1.816406 10.78125 -1.953125 C 11.113281 -2.085938 11.398438 -2.28125 11.640625 -2.53125 C 11.890625 -2.78125 12.085938 -3.066406 12.234375 -3.390625 C 12.390625 -3.710938 12.46875 -4.066406 12.46875 -4.453125 C 12.46875 -5.265625 12.191406 -5.847656 11.640625 -6.203125 C 11.097656 -6.554688 10.414062 -6.8125 9.59375 -6.96875 C 8.769531 -7.125 7.878906 -7.242188 6.921875 -7.328125 C 5.960938 -7.410156 5.070312 -7.582031 4.25 -7.84375 C 3.425781 -8.113281 2.742188 -8.546875 2.203125 -9.140625 C 1.660156 -9.734375 1.390625 -10.613281 1.390625 -11.78125 C 1.390625 -12.40625 1.507812 -12.992188 1.75 -13.546875 C 1.988281 -14.097656 2.3125 -14.578125 2.71875 -14.984375 C 3.125 -15.390625 3.597656 -15.707031 4.140625 -15.9375 C 4.679688 -16.175781 5.269531 -16.296875 5.90625 -16.296875 L 12.75 -16.296875 L 13.734375 -14.546875 L 5.90625 -14.546875 C 5.507812 -14.546875 5.144531 -14.46875 4.8125 -14.3125 C 4.488281 -14.164062 4.203125 -13.96875 3.953125 -13.71875 C 3.703125 -13.476562 3.5 -13.191406 3.34375 -12.859375 C 3.195312 -12.523438 3.125 -12.164062 3.125 -11.78125 C 3.125 -11.144531 3.28125 -10.65625 3.59375 -10.3125 C 3.914062 -9.976562 4.335938 -9.710938 4.859375 -9.515625 C 5.390625 -9.316406 5.984375 -9.175781 6.640625 -9.09375 C 7.296875 -9.007812 7.96875 -8.925781 8.65625 -8.84375 C 9.351562 -8.757812 10.03125 -8.644531 10.6875 -8.5 C 11.351562 -8.351562 11.945312 -8.128906 12.46875 -7.828125 C 13 -7.523438 13.421875 -7.101562 13.734375 -6.5625 C 14.054688 -6.03125 14.21875 -5.328125 14.21875 -4.453125 C 14.21875 -3.828125 14.09375 -3.242188 13.84375 -2.703125 C 13.601562 -2.160156 13.28125 -1.6875 12.875 -1.28125 C 12.46875 -0.882812 11.988281 -0.570312 11.4375 -0.34375 C 10.882812 -0.113281 10.304688 0 9.703125 0 L 3.109375 0 Z M 2.109375 -1.75 "/></g></g></g></g></g><g transform="matrix(1, 0, 0, 1, 93, 26)"><g clip-path="url(#e79cebc47a)"><g clip-path="url(#a41755fba8)"><g transform="matrix(1, 0, 0, 1, 0, 0.000000000000007105)"><g clip-path="url(#727b74e7b4)"><g fill="#2b2b2b" fill-opacity="1"><g transform="translate(0.720469, 70.124716)"><g><path d="M 34.109375 0.78125 C 29.960938 0.78125 26.09375 0.00390625 22.5 -1.546875 C 18.90625 -3.109375 15.726562 -5.265625 12.96875 -8.015625 C 10.21875 -10.765625 8.0625 -13.9375 6.5 -17.53125 C 4.945312 -21.132812 4.171875 -25.007812 4.171875 -29.15625 C 4.171875 -33.300781 4.945312 -37.171875 6.5 -40.765625 C 8.0625 -44.359375 10.21875 -47.53125 12.96875 -50.28125 C 15.726562 -53.039062 18.90625 -55.195312 22.5 -56.75 C 26.09375 -58.300781 29.960938 -59.078125 34.109375 -59.078125 C 39.804688 -59.078125 44.96875 -57.632812 49.59375 -54.75 C 54.226562 -51.875 57.8125 -48.101562 60.34375 -43.4375 L 52.171875 -39.0625 C 50.492188 -42.300781 48.050781 -44.875 44.84375 -46.78125 C 41.632812 -48.695312 38.054688 -49.65625 34.109375 -49.65625 C 30.285156 -49.65625 26.816406 -48.75 23.703125 -46.9375 C 20.597656 -45.125 18.140625 -42.675781 16.328125 -39.59375 C 14.515625 -36.519531 13.609375 -33.039062 13.609375 -29.15625 C 13.609375 -25.269531 14.515625 -21.785156 16.328125 -18.703125 C 18.140625 -15.628906 20.597656 -13.179688 23.703125 -11.359375 C 26.816406 -9.546875 30.285156 -8.640625 34.109375 -8.640625 C 38.054688 -8.640625 41.632812 -9.613281 44.84375 -11.5625 C 48.050781 -13.507812 50.492188 -16.066406 52.171875 -19.234375 L 60.34375 -14.859375 C 57.8125 -10.203125 54.226562 -6.429688 49.59375 -3.546875 C 44.96875 -0.660156 39.804688 0.78125 34.109375 0.78125 Z M 34.109375 0.78125 "/></g></g></g><g clip-path="url(#644dffaa1b)"><g fill="#2b2b2b" fill-opacity="1"><g transform="translate(62.313362, 70.124716)"><g><path d="M 6.40625 0 L 6.40625 -69.1875 L 15.640625 -69.1875 L 15.640625 0 Z M 6.40625 0 "/></g></g></g></g><g fill="#2b2b2b" fill-opacity="1"><g transform="translate(82.820602, 70.124716)"><g/></g></g><g fill="#2b2b2b" fill-opacity="1"><g transform="translate(104.581946, 70.124716)"><g/></g></g><g fill="#2b2b2b" fill-opacity="1"><g transform="translate(126.34329, 70.124716)"><g/></g></g><g clip-path="url(#3a22f6492a)"><g fill="#2b2b2b" fill-opacity="1"><g transform="translate(148.112926, 70.124716)"><g><path d="M 35.953125 -69.1875 L 45.1875 -69.1875 L 45.1875 0 L 35.953125 0 L 35.953125 -4.078125 C 34.328125 -2.585938 32.445312 -1.40625 30.3125 -0.53125 C 28.175781 0.34375 25.878906 0.78125 23.421875 0.78125 C 19.785156 0.78125 16.460938 -0.125 13.453125 -1.9375 C 10.441406 -3.757812 8.0625 -6.191406 6.3125 -9.234375 C 4.5625 -12.273438 3.6875 -15.675781 3.6875 -19.4375 C 3.6875 -23.1875 4.5625 -26.582031 6.3125 -29.625 C 8.0625 -32.675781 10.441406 -35.109375 13.453125 -36.921875 C 16.460938 -38.734375 19.785156 -39.640625 23.421875 -39.640625 C 25.878906 -39.640625 28.175781 -39.203125 30.3125 -38.328125 C 32.445312 -37.453125 34.328125 -36.269531 35.953125 -34.78125 Z M 24.578125 -7.78125 C 26.722656 -7.78125 28.6875 -8.296875 30.46875 -9.328125 C 32.25 -10.367188 33.65625 -11.78125 34.6875 -13.5625 C 35.726562 -15.34375 36.25 -17.300781 36.25 -19.4375 C 36.25 -21.632812 35.726562 -23.609375 34.6875 -25.359375 C 33.65625 -27.109375 32.25 -28.5 30.46875 -29.53125 C 28.6875 -30.570312 26.722656 -31.09375 24.578125 -31.09375 C 22.441406 -31.09375 20.484375 -30.570312 18.703125 -29.53125 C 16.921875 -28.5 15.507812 -27.109375 14.46875 -25.359375 C 13.4375 -23.609375 12.921875 -21.632812 12.921875 -19.4375 C 12.921875 -17.300781 13.4375 -15.34375 14.46875 -13.5625 C 15.507812 -11.78125 16.921875 -10.367188 18.703125 -9.328125 C 20.484375 -8.296875 22.441406 -7.78125 24.578125 -7.78125 Z M 24.578125 -7.78125 "/></g></g></g></g><g fill="#2684ff" fill-opacity="1"><g transform="translate(198.150907, 70.124716)"><g><path d="M 43.828125 -58.296875 L 53.34375 -58.296875 L 53.34375 0 L 43.828125 0 L 43.828125 -24.78125 L 15.9375 -24.78125 L 15.9375 0 L 6.40625 0 L 6.40625 -58.296875 L 15.9375 -58.296875 L 15.9375 -33.625 L 43.828125 -33.625 Z M 43.828125 -58.296875 "/></g></g></g><g fill="#2684ff" fill-opacity="1"><g transform="translate(256.343551, 70.124716)"><g><path d="M 21.671875 0.78125 C 16.554688 0.78125 12.554688 -0.578125 9.671875 -3.296875 C 6.785156 -6.023438 5.34375 -9.71875 5.34375 -14.375 L 5.34375 -38.875 L 14.484375 -38.875 L 14.484375 -15.546875 C 14.484375 -13.148438 15.160156 -11.253906 16.515625 -9.859375 C 17.878906 -8.472656 19.597656 -7.78125 21.671875 -7.78125 C 23.742188 -7.78125 25.457031 -8.472656 26.8125 -9.859375 C 28.175781 -11.253906 28.859375 -13.148438 28.859375 -15.546875 L 28.859375 -38.875 L 38 -38.875 L 38 -14.375 C 38 -9.71875 36.554688 -6.023438 33.671875 -3.296875 C 30.785156 -0.578125 26.785156 0.78125 21.671875 0.78125 Z M 21.671875 0.78125 "/></g></g></g><g clip-path="url(#c73d5436a3)"><g fill="#2684ff" fill-opacity="1"><g transform="translate(298.117824, 70.124716)"><g><path d="M 28.171875 -39.640625 C 31.867188 -39.640625 35.207031 -38.734375 38.1875 -36.921875 C 41.164062 -35.109375 43.53125 -32.675781 45.28125 -29.625 C 47.03125 -26.582031 47.90625 -23.1875 47.90625 -19.4375 C 47.90625 -15.675781 47.03125 -12.273438 45.28125 -9.234375 C 43.53125 -6.191406 41.164062 -3.757812 38.1875 -1.9375 C 35.207031 -0.125 31.867188 0.78125 28.171875 0.78125 C 25.710938 0.78125 23.429688 0.34375 21.328125 -0.53125 C 19.222656 -1.40625 17.328125 -2.585938 15.640625 -4.078125 L 15.640625 0 L 6.40625 0 L 6.40625 -69.1875 L 15.640625 -69.1875 L 15.640625 -34.78125 C 17.328125 -36.269531 19.222656 -37.453125 21.328125 -38.328125 C 23.429688 -39.203125 25.710938 -39.640625 28.171875 -39.640625 Z M 27.015625 -7.78125 C 29.210938 -7.78125 31.1875 -8.296875 32.9375 -9.328125 C 34.6875 -10.367188 36.078125 -11.78125 37.109375 -13.5625 C 38.148438 -15.34375 38.671875 -17.300781 38.671875 -19.4375 C 38.671875 -21.632812 38.148438 -23.609375 37.109375 -25.359375 C 36.078125 -27.109375 34.6875 -28.5 32.9375 -29.53125 C 31.1875 -30.570312 29.210938 -31.09375 27.015625 -31.09375 C 24.878906 -31.09375 22.921875 -30.570312 21.140625 -29.53125 C 19.359375 -28.5 17.945312 -27.109375 16.90625 -25.359375 C 15.875 -23.609375 15.359375 -21.632812 15.359375 -19.4375 C 15.359375 -17.300781 15.875 -15.34375 16.90625 -13.5625 C 17.945312 -11.78125 19.359375 -10.367188 21.140625 -9.328125 C 22.921875 -8.296875 24.878906 -7.78125 27.015625 -7.78125 Z M 27.015625 -7.78125 "/></g></g></g></g></g></g></g><g clip-path="url(#14747e8242)"><path fill="#2684ff" d="M 135.390625 29.28125 L 114.125 29.28125 C 114.125 31.828125 115.136719 34.269531 116.9375 36.070312 C 118.738281 37.871094 121.179688 38.882812 123.726562 38.882812 L 127.640625 38.882812 L 127.640625 42.664062 C 127.644531 47.960938 131.9375 52.257812 137.234375 52.257812 L 137.234375 31.128906 C 137.234375 30.109375 136.410156 29.28125 135.390625 29.28125 Z M 135.390625 29.28125 " fill-opacity="1" fill-rule="nonzero"/></g><g clip-path="url(#9fc7ad26d8)"><g clip-path="url(#96260bf6f8)"><path fill="url(#2c169b3420)" d="M 103.601562 39.878906 L 103.601562 62.855469 L 126.714844 62.855469 L 126.714844 39.878906 Z M 103.601562 39.878906 " fill-rule="nonzero"/></g></g><g clip-path="url(#a156dac456)"><g clip-path="url(#b4511964c4)"><path fill="url(#e61c63a426)" d="M 93.074219 50.46875 L 93.074219 73.441406 L 116.183594 73.441406 L 116.183594 50.46875 Z M 93.074219 50.46875 " fill-rule="nonzero"/></g></g></g></g></svg>