<svg xmlns="http://www.w3.org/2000/svg" xmlns:xlink="http://www.w3.org/1999/xlink" width="716" zoomAndPan="magnify" viewBox="0 0 537 150.749998" height="201" preserveAspectRatio="xMidYMid meet" version="1.0"><defs><g/><clipPath id="58c5fb2610"><path d="M 0.929688 0.597656 L 350.03125 0.597656 L 350.03125 94.28125 L 0.929688 94.28125 Z M 0.929688 0.597656 " clip-rule="nonzero"/></clipPath><clipPath id="6adf807704"><path d="M 69 0.597656 L 79 0.597656 L 79 71 L 69 71 Z M 69 0.597656 " clip-rule="nonzero"/></clipPath><clipPath id="9b366dfcbd"><path d="M 152 0.597656 L 195 0.597656 L 195 72 L 152 72 Z M 152 0.597656 " clip-rule="nonzero"/></clipPath><clipPath id="952e3f7f02"><path d="M 305 0.597656 L 348 0.597656 L 348 72 L 305 72 Z M 305 0.597656 " clip-rule="nonzero"/></clipPath><clipPath id="95ab1a483d"><rect x="0" width="351" y="0" height="95"/></clipPath><clipPath id="54eea6b8a0"><path d="M 115 29.375 L 138.167969 29.375 L 138.167969 53 L 115 53 Z M 115 29.375 " clip-rule="nonzero"/></clipPath><clipPath id="b7ae726089"><path d="M 104 39 L 128 39 L 128 63 L 104 63 Z M 104 39 " clip-rule="nonzero"/></clipPath><clipPath id="3d948b6fe5"><path d="M 125.785156 39.988281 L 104.484375 39.988281 C 104.488281 45.292969 108.789062 49.59375 114.09375 49.597656 L 118.019531 49.597656 L 118.019531 53.398438 C 118.027344 58.703125 122.328125 63 127.632812 63 L 127.632812 41.835938 C 127.632812 40.816406 126.804688 39.988281 125.785156 39.988281 Z M 125.785156 39.988281 " clip-rule="nonzero"/></clipPath><linearGradient x1="0.990596" gradientTransform="matrix(23.149303, 0, 0, 23.013827, 104.484429, 39.987125)" y1="-0.00906483" x2="0.00926416" gradientUnits="userSpaceOnUse" y2="1.008931" id="94615e48ec"><stop stop-opacity="1" stop-color="rgb(0%, 32.159424%, 79.998779%)" offset="0"/><stop stop-opacity="1" stop-color="rgb(0%, 32.159424%, 79.998779%)" offset="0.0625"/><stop stop-opacity="1" stop-color="rgb(0%, 32.159424%, 79.998779%)" offset="0.078125"/><stop stop-opacity="1" stop-color="rgb(0.0823975%, 32.269287%, 80.110168%)" offset="0.0859375"/><stop stop-opacity="1" stop-color="rgb(0.343323%, 32.61261%, 80.461121%)" offset="0.0898438"/><stop stop-opacity="1" stop-color="rgb(0.521851%, 32.846069%, 80.700684%)" offset="0.09375"/><stop stop-opacity="1" stop-color="rgb(0.698853%, 33.079529%, 80.938721%)" offset="0.0976563"/><stop stop-opacity="1" stop-color="rgb(0.87738%, 33.314514%, 81.178284%)" offset="0.101563"/><stop stop-opacity="1" stop-color="rgb(1.054382%, 33.547974%, 81.416321%)" offset="0.105469"/><stop stop-opacity="1" stop-color="rgb(1.23291%, 33.782959%, 81.655884%)" offset="0.109375"/><stop stop-opacity="1" stop-color="rgb(1.411438%, 34.016418%, 81.893921%)" offset="0.113281"/><stop stop-opacity="1" stop-color="rgb(1.589966%, 34.251404%, 82.133484%)" offset="0.117188"/><stop stop-opacity="1" stop-color="rgb(1.766968%, 34.484863%, 82.371521%)" offset="0.121094"/><stop stop-opacity="1" stop-color="rgb(1.945496%, 34.719849%, 82.611084%)" offset="0.125"/><stop stop-opacity="1" stop-color="rgb(2.122498%, 34.953308%, 82.849121%)" offset="0.128906"/><stop stop-opacity="1" stop-color="rgb(2.301025%, 35.186768%, 83.088684%)" offset="0.132813"/><stop stop-opacity="1" stop-color="rgb(2.478027%, 35.420227%, 83.326721%)" offset="0.136719"/><stop stop-opacity="1" stop-color="rgb(2.656555%, 35.655212%, 83.566284%)" offset="0.140625"/><stop stop-opacity="1" stop-color="rgb(2.835083%, 35.888672%, 83.804321%)" offset="0.144531"/><stop stop-opacity="1" stop-color="rgb(3.013611%, 36.123657%, 84.043884%)" offset="0.148438"/><stop stop-opacity="1" stop-color="rgb(3.190613%, 36.357117%, 84.283447%)" offset="0.152344"/><stop stop-opacity="1" stop-color="rgb(3.369141%, 36.592102%, 84.52301%)" offset="0.15625"/><stop stop-opacity="1" stop-color="rgb(3.546143%, 36.825562%, 84.761047%)" offset="0.160156"/><stop stop-opacity="1" stop-color="rgb(3.72467%, 37.060547%, 85.00061%)" offset="0.164063"/><stop stop-opacity="1" stop-color="rgb(3.901672%, 37.294006%, 85.238647%)" offset="0.167969"/><stop stop-opacity="1" stop-color="rgb(4.0802%, 37.527466%, 85.47821%)" offset="0.171875"/><stop stop-opacity="1" stop-color="rgb(4.258728%, 37.760925%, 85.716248%)" offset="0.175781"/><stop stop-opacity="1" stop-color="rgb(4.437256%, 37.995911%, 85.955811%)" offset="0.179688"/><stop stop-opacity="1" stop-color="rgb(4.614258%, 38.22937%, 86.193848%)" offset="0.183594"/><stop stop-opacity="1" stop-color="rgb(4.792786%, 38.464355%, 86.433411%)" offset="0.1875"/><stop stop-opacity="1" stop-color="rgb(4.969788%, 38.697815%, 86.671448%)" offset="0.191406"/><stop stop-opacity="1" stop-color="rgb(5.148315%, 38.9328%, 86.911011%)" offset="0.195313"/><stop stop-opacity="1" stop-color="rgb(5.325317%, 39.16626%, 87.149048%)" offset="0.199219"/><stop stop-opacity="1" stop-color="rgb(5.503845%, 39.401245%, 87.388611%)" offset="0.203125"/><stop stop-opacity="1" stop-color="rgb(5.682373%, 39.634705%, 87.626648%)" offset="0.207031"/><stop stop-opacity="1" stop-color="rgb(5.860901%, 39.86969%, 87.866211%)" offset="0.210938"/><stop stop-opacity="1" stop-color="rgb(6.037903%, 40.103149%, 88.104248%)" offset="0.214844"/><stop stop-opacity="1" stop-color="rgb(6.216431%, 40.336609%, 88.343811%)" offset="0.21875"/><stop stop-opacity="1" stop-color="rgb(6.393433%, 40.570068%, 88.581848%)" offset="0.222656"/><stop stop-opacity="1" stop-color="rgb(6.57196%, 40.805054%, 88.821411%)" offset="0.226563"/><stop stop-opacity="1" stop-color="rgb(6.748962%, 41.038513%, 89.059448%)" offset="0.230469"/><stop stop-opacity="1" stop-color="rgb(6.92749%, 41.273499%, 89.299011%)" offset="0.234375"/><stop stop-opacity="1" stop-color="rgb(7.106018%, 41.506958%, 89.537048%)" offset="0.238281"/><stop stop-opacity="1" stop-color="rgb(7.284546%, 41.741943%, 89.776611%)" offset="0.242188"/><stop stop-opacity="1" stop-color="rgb(7.461548%, 41.975403%, 90.014648%)" offset="0.246094"/><stop stop-opacity="1" stop-color="rgb(7.640076%, 42.210388%, 90.254211%)" offset="0.25"/><stop stop-opacity="1" stop-color="rgb(7.817078%, 42.443848%, 90.493774%)" offset="0.253906"/><stop stop-opacity="1" stop-color="rgb(7.995605%, 42.677307%, 90.733337%)" offset="0.257813"/><stop stop-opacity="1" stop-color="rgb(8.172607%, 42.910767%, 90.971375%)" offset="0.261719"/><stop stop-opacity="1" stop-color="rgb(8.351135%, 43.145752%, 91.210938%)" offset="0.265625"/><stop stop-opacity="1" stop-color="rgb(8.528137%, 43.379211%, 91.448975%)" offset="0.269531"/><stop stop-opacity="1" stop-color="rgb(8.706665%, 43.614197%, 91.688538%)" offset="0.273438"/><stop stop-opacity="1" stop-color="rgb(8.885193%, 43.847656%, 91.926575%)" offset="0.277344"/><stop stop-opacity="1" stop-color="rgb(9.063721%, 44.082642%, 92.166138%)" offset="0.28125"/><stop stop-opacity="1" stop-color="rgb(9.240723%, 44.316101%, 92.404175%)" offset="0.285156"/><stop stop-opacity="1" stop-color="rgb(9.41925%, 44.551086%, 92.643738%)" offset="0.289063"/><stop stop-opacity="1" stop-color="rgb(9.596252%, 44.784546%, 92.881775%)" offset="0.292969"/><stop stop-opacity="1" stop-color="rgb(9.77478%, 45.018005%, 93.121338%)" offset="0.296875"/><stop stop-opacity="1" stop-color="rgb(9.951782%, 45.251465%, 93.359375%)" offset="0.300781"/><stop stop-opacity="1" stop-color="rgb(10.13031%, 45.48645%, 93.598938%)" offset="0.304688"/><stop stop-opacity="1" stop-color="rgb(10.308838%, 45.71991%, 93.836975%)" offset="0.308594"/><stop stop-opacity="1" stop-color="rgb(10.487366%, 45.954895%, 94.076538%)" offset="0.3125"/><stop stop-opacity="1" stop-color="rgb(10.664368%, 46.188354%, 94.314575%)" offset="0.316406"/><stop stop-opacity="1" stop-color="rgb(10.842896%, 46.42334%, 94.554138%)" offset="0.320313"/><stop stop-opacity="1" stop-color="rgb(11.019897%, 46.656799%, 94.792175%)" offset="0.324219"/><stop stop-opacity="1" stop-color="rgb(11.198425%, 46.891785%, 95.031738%)" offset="0.328125"/><stop stop-opacity="1" stop-color="rgb(11.375427%, 47.125244%, 95.269775%)" offset="0.332031"/><stop stop-opacity="1" stop-color="rgb(11.553955%, 47.360229%, 95.509338%)" offset="0.335938"/><stop stop-opacity="1" stop-color="rgb(11.732483%, 47.593689%, 95.747375%)" offset="0.339844"/><stop stop-opacity="1" stop-color="rgb(11.911011%, 47.827148%, 95.986938%)" offset="0.34375"/><stop stop-opacity="1" stop-color="rgb(12.088013%, 48.060608%, 96.224976%)" offset="0.347656"/><stop stop-opacity="1" stop-color="rgb(12.266541%, 48.295593%, 96.464539%)" offset="0.351562"/><stop stop-opacity="1" stop-color="rgb(12.443542%, 48.529053%, 96.702576%)" offset="0.355469"/><stop stop-opacity="1" stop-color="rgb(12.62207%, 48.764038%, 96.942139%)" offset="0.359375"/><stop stop-opacity="1" stop-color="rgb(12.799072%, 48.997498%, 97.181702%)" offset="0.363281"/><stop stop-opacity="1" stop-color="rgb(12.9776%, 49.232483%, 97.421265%)" offset="0.367188"/><stop stop-opacity="1" stop-color="rgb(13.156128%, 49.465942%, 97.659302%)" offset="0.371094"/><stop stop-opacity="1" stop-color="rgb(13.334656%, 49.700928%, 97.898865%)" offset="0.375"/><stop stop-opacity="1" stop-color="rgb(13.511658%, 49.934387%, 98.136902%)" offset="0.378906"/><stop stop-opacity="1" stop-color="rgb(13.690186%, 50.167847%, 98.376465%)" offset="0.382813"/><stop stop-opacity="1" stop-color="rgb(13.867188%, 50.401306%, 98.614502%)" offset="0.386719"/><stop stop-opacity="1" stop-color="rgb(14.045715%, 50.636292%, 98.854065%)" offset="0.390625"/><stop stop-opacity="1" stop-color="rgb(14.222717%, 50.869751%, 99.092102%)" offset="0.394531"/><stop stop-opacity="1" stop-color="rgb(14.401245%, 51.104736%, 99.331665%)" offset="0.398438"/><stop stop-opacity="1" stop-color="rgb(14.579773%, 51.338196%, 99.569702%)" offset="0.402344"/><stop stop-opacity="1" stop-color="rgb(14.758301%, 51.573181%, 99.809265%)" offset="0.40625"/><stop stop-opacity="1" stop-color="rgb(14.828491%, 51.66626%, 99.90387%)" offset="0.4375"/><stop stop-opacity="1" stop-color="rgb(14.898682%, 51.759338%, 100%)" offset="0.490831"/><stop stop-opacity="1" stop-color="rgb(14.898682%, 51.759338%, 100%)" offset="0.5"/><stop stop-opacity="1" stop-color="rgb(14.898682%, 51.759338%, 100%)" offset="0.509169"/><stop stop-opacity="1" stop-color="rgb(14.898682%, 51.759338%, 100%)" offset="1"/></linearGradient><clipPath id="77094da80f"><path d="M 93.9375 50 L 118 50 L 118 73.605469 L 93.9375 73.605469 Z M 93.9375 50 " clip-rule="nonzero"/></clipPath><clipPath id="82c74c5688"><path d="M 115.238281 50.59375 L 93.9375 50.59375 C 93.9375 55.90625 98.242188 60.210938 103.554688 60.210938 L 107.492188 60.210938 L 107.492188 64 C 107.492188 69.300781 111.785156 73.597656 117.089844 73.605469 L 117.089844 52.441406 C 117.089844 51.421875 116.261719 50.59375 115.238281 50.59375 Z M 115.238281 50.59375 " clip-rule="nonzero"/></clipPath><linearGradient x1="1.00555" gradientTransform="matrix(23.149303, 0, 0, 23.012439, 93.938863, 50.594708)" y1="0.00567492" x2="-0.00537345" gradientUnits="userSpaceOnUse" y2="0.994355" id="7f3654cf81"><stop stop-opacity="1" stop-color="rgb(0%, 32.159424%, 79.998779%)" offset="0"/><stop stop-opacity="1" stop-color="rgb(0%, 32.159424%, 79.998779%)" offset="0.0625"/><stop stop-opacity="1" stop-color="rgb(0%, 32.159424%, 79.998779%)" offset="0.078125"/><stop stop-opacity="1" stop-color="rgb(0.131226%, 32.331848%, 80.174255%)" offset="0.0859375"/><stop stop-opacity="1" stop-color="rgb(0.419617%, 32.713318%, 80.563354%)" offset="0.0898438"/><stop stop-opacity="1" stop-color="rgb(0.578308%, 32.922363%, 80.776978%)" offset="0.09375"/><stop stop-opacity="1" stop-color="rgb(0.737%, 33.129883%, 80.989075%)" offset="0.0976563"/><stop stop-opacity="1" stop-color="rgb(0.895691%, 33.338928%, 81.202698%)" offset="0.101562"/><stop stop-opacity="1" stop-color="rgb(1.054382%, 33.546448%, 81.414795%)" offset="0.105469"/><stop stop-opacity="1" stop-color="rgb(1.213074%, 33.755493%, 81.628418%)" offset="0.109375"/><stop stop-opacity="1" stop-color="rgb(1.371765%, 33.964539%, 81.840515%)" offset="0.113281"/><stop stop-opacity="1" stop-color="rgb(1.530457%, 34.173584%, 82.054138%)" offset="0.117188"/><stop stop-opacity="1" stop-color="rgb(1.687622%, 34.381104%, 82.266235%)" offset="0.121094"/><stop stop-opacity="1" stop-color="rgb(1.846313%, 34.590149%, 82.479858%)" offset="0.125"/><stop stop-opacity="1" stop-color="rgb(2.005005%, 34.797668%, 82.691956%)" offset="0.128906"/><stop stop-opacity="1" stop-color="rgb(2.163696%, 35.006714%, 82.905579%)" offset="0.132813"/><stop stop-opacity="1" stop-color="rgb(2.322388%, 35.214233%, 83.117676%)" offset="0.136719"/><stop stop-opacity="1" stop-color="rgb(2.481079%, 35.423279%, 83.331299%)" offset="0.140625"/><stop stop-opacity="1" stop-color="rgb(2.639771%, 35.632324%, 83.543396%)" offset="0.144531"/><stop stop-opacity="1" stop-color="rgb(2.798462%, 35.84137%, 83.755493%)" offset="0.148438"/><stop stop-opacity="1" stop-color="rgb(2.957153%, 36.048889%, 83.96759%)" offset="0.152344"/><stop stop-opacity="1" stop-color="rgb(3.115845%, 36.257935%, 84.181213%)" offset="0.15625"/><stop stop-opacity="1" stop-color="rgb(3.27301%, 36.465454%, 84.393311%)" offset="0.160156"/><stop stop-opacity="1" stop-color="rgb(3.431702%, 36.6745%, 84.606934%)" offset="0.164063"/><stop stop-opacity="1" stop-color="rgb(3.590393%, 36.883545%, 84.819031%)" offset="0.167969"/><stop stop-opacity="1" stop-color="rgb(3.749084%, 37.09259%, 85.032654%)" offset="0.171875"/><stop stop-opacity="1" stop-color="rgb(3.907776%, 37.30011%, 85.244751%)" offset="0.175781"/><stop stop-opacity="1" stop-color="rgb(4.066467%, 37.509155%, 85.458374%)" offset="0.179688"/><stop stop-opacity="1" stop-color="rgb(4.225159%, 37.716675%, 85.670471%)" offset="0.183594"/><stop stop-opacity="1" stop-color="rgb(4.38385%, 37.92572%, 85.884094%)" offset="0.1875"/><stop stop-opacity="1" stop-color="rgb(4.541016%, 38.134766%, 86.096191%)" offset="0.191406"/><stop stop-opacity="1" stop-color="rgb(4.699707%, 38.343811%, 86.309814%)" offset="0.195313"/><stop stop-opacity="1" stop-color="rgb(4.858398%, 38.551331%, 86.521912%)" offset="0.199219"/><stop stop-opacity="1" stop-color="rgb(5.01709%, 38.760376%, 86.735535%)" offset="0.203125"/><stop stop-opacity="1" stop-color="rgb(5.175781%, 38.967896%, 86.947632%)" offset="0.207031"/><stop stop-opacity="1" stop-color="rgb(5.334473%, 39.176941%, 87.159729%)" offset="0.210938"/><stop stop-opacity="1" stop-color="rgb(5.493164%, 39.38446%, 87.371826%)" offset="0.214844"/><stop stop-opacity="1" stop-color="rgb(5.651855%, 39.593506%, 87.585449%)" offset="0.21875"/><stop stop-opacity="1" stop-color="rgb(5.809021%, 39.802551%, 87.797546%)" offset="0.222656"/><stop stop-opacity="1" stop-color="rgb(5.967712%, 40.011597%, 88.011169%)" offset="0.226562"/><stop stop-opacity="1" stop-color="rgb(6.126404%, 40.219116%, 88.223267%)" offset="0.230469"/><stop stop-opacity="1" stop-color="rgb(6.285095%, 40.428162%, 88.43689%)" offset="0.234375"/><stop stop-opacity="1" stop-color="rgb(6.443787%, 40.635681%, 88.648987%)" offset="0.238281"/><stop stop-opacity="1" stop-color="rgb(6.602478%, 40.844727%, 88.86261%)" offset="0.242187"/><stop stop-opacity="1" stop-color="rgb(6.761169%, 41.053772%, 89.074707%)" offset="0.246094"/><stop stop-opacity="1" stop-color="rgb(6.919861%, 41.262817%, 89.28833%)" offset="0.25"/><stop stop-opacity="1" stop-color="rgb(7.077026%, 41.470337%, 89.500427%)" offset="0.253906"/><stop stop-opacity="1" stop-color="rgb(7.235718%, 41.679382%, 89.71405%)" offset="0.257813"/><stop stop-opacity="1" stop-color="rgb(7.394409%, 41.886902%, 89.926147%)" offset="0.261719"/><stop stop-opacity="1" stop-color="rgb(7.553101%, 42.095947%, 90.139771%)" offset="0.265625"/><stop stop-opacity="1" stop-color="rgb(7.711792%, 42.304993%, 90.351868%)" offset="0.269531"/><stop stop-opacity="1" stop-color="rgb(7.870483%, 42.514038%, 90.563965%)" offset="0.273438"/><stop stop-opacity="1" stop-color="rgb(8.029175%, 42.721558%, 90.776062%)" offset="0.277344"/><stop stop-opacity="1" stop-color="rgb(8.187866%, 42.930603%, 90.989685%)" offset="0.28125"/><stop stop-opacity="1" stop-color="rgb(8.345032%, 43.138123%, 91.201782%)" offset="0.285156"/><stop stop-opacity="1" stop-color="rgb(8.503723%, 43.347168%, 91.415405%)" offset="0.289062"/><stop stop-opacity="1" stop-color="rgb(8.662415%, 43.554688%, 91.627502%)" offset="0.292969"/><stop stop-opacity="1" stop-color="rgb(8.821106%, 43.763733%, 91.841125%)" offset="0.296875"/><stop stop-opacity="1" stop-color="rgb(8.979797%, 43.972778%, 92.053223%)" offset="0.300781"/><stop stop-opacity="1" stop-color="rgb(9.138489%, 44.181824%, 92.266846%)" offset="0.304688"/><stop stop-opacity="1" stop-color="rgb(9.29718%, 44.389343%, 92.478943%)" offset="0.308594"/><stop stop-opacity="1" stop-color="rgb(9.455872%, 44.598389%, 92.692566%)" offset="0.3125"/><stop stop-opacity="1" stop-color="rgb(9.614563%, 44.805908%, 92.904663%)" offset="0.316406"/><stop stop-opacity="1" stop-color="rgb(9.773254%, 45.014954%, 93.118286%)" offset="0.320312"/><stop stop-opacity="1" stop-color="rgb(9.93042%, 45.223999%, 93.330383%)" offset="0.324219"/><stop stop-opacity="1" stop-color="rgb(10.089111%, 45.433044%, 93.544006%)" offset="0.328125"/><stop stop-opacity="1" stop-color="rgb(10.247803%, 45.640564%, 93.756104%)" offset="0.332031"/><stop stop-opacity="1" stop-color="rgb(10.406494%, 45.849609%, 93.968201%)" offset="0.335938"/><stop stop-opacity="1" stop-color="rgb(10.565186%, 46.057129%, 94.180298%)" offset="0.339844"/><stop stop-opacity="1" stop-color="rgb(10.723877%, 46.266174%, 94.393921%)" offset="0.34375"/><stop stop-opacity="1" stop-color="rgb(10.882568%, 46.47522%, 94.606018%)" offset="0.347656"/><stop stop-opacity="1" stop-color="rgb(11.04126%, 46.684265%, 94.819641%)" offset="0.351563"/><stop stop-opacity="1" stop-color="rgb(11.198425%, 46.891785%, 95.031738%)" offset="0.355469"/><stop stop-opacity="1" stop-color="rgb(11.357117%, 47.10083%, 95.245361%)" offset="0.359375"/><stop stop-opacity="1" stop-color="rgb(11.515808%, 47.30835%, 95.457458%)" offset="0.363281"/><stop stop-opacity="1" stop-color="rgb(11.6745%, 47.517395%, 95.671082%)" offset="0.367188"/><stop stop-opacity="1" stop-color="rgb(11.833191%, 47.724915%, 95.883179%)" offset="0.371094"/><stop stop-opacity="1" stop-color="rgb(11.991882%, 47.93396%, 96.096802%)" offset="0.375"/><stop stop-opacity="1" stop-color="rgb(12.150574%, 48.143005%, 96.308899%)" offset="0.378906"/><stop stop-opacity="1" stop-color="rgb(12.309265%, 48.352051%, 96.522522%)" offset="0.382812"/><stop stop-opacity="1" stop-color="rgb(12.466431%, 48.55957%, 96.734619%)" offset="0.386719"/><stop stop-opacity="1" stop-color="rgb(12.625122%, 48.768616%, 96.948242%)" offset="0.390625"/><stop stop-opacity="1" stop-color="rgb(12.783813%, 48.976135%, 97.160339%)" offset="0.394531"/><stop stop-opacity="1" stop-color="rgb(12.942505%, 49.185181%, 97.372437%)" offset="0.398438"/><stop stop-opacity="1" stop-color="rgb(13.101196%, 49.394226%, 97.584534%)" offset="0.402344"/><stop stop-opacity="1" stop-color="rgb(13.259888%, 49.603271%, 97.798157%)" offset="0.40625"/><stop stop-opacity="1" stop-color="rgb(13.418579%, 49.810791%, 98.010254%)" offset="0.410156"/><stop stop-opacity="1" stop-color="rgb(13.577271%, 50.019836%, 98.223877%)" offset="0.414063"/><stop stop-opacity="1" stop-color="rgb(13.734436%, 50.227356%, 98.435974%)" offset="0.417969"/><stop stop-opacity="1" stop-color="rgb(13.893127%, 50.436401%, 98.649597%)" offset="0.421875"/><stop stop-opacity="1" stop-color="rgb(14.051819%, 50.645447%, 98.861694%)" offset="0.425781"/><stop stop-opacity="1" stop-color="rgb(14.21051%, 50.854492%, 99.075317%)" offset="0.429688"/><stop stop-opacity="1" stop-color="rgb(14.369202%, 51.062012%, 99.287415%)" offset="0.433594"/><stop stop-opacity="1" stop-color="rgb(14.527893%, 51.271057%, 99.501038%)" offset="0.4375"/><stop stop-opacity="1" stop-color="rgb(14.686584%, 51.478577%, 99.713135%)" offset="0.441406"/><stop stop-opacity="1" stop-color="rgb(14.845276%, 51.687622%, 99.926758%)" offset="0.445312"/><stop stop-opacity="1" stop-color="rgb(14.871216%, 51.722717%, 99.963379%)" offset="0.453125"/><stop stop-opacity="1" stop-color="rgb(14.898682%, 51.759338%, 100%)" offset="0.46875"/><stop stop-opacity="1" stop-color="rgb(14.898682%, 51.759338%, 100%)" offset="0.4944"/><stop stop-opacity="1" stop-color="rgb(14.898682%, 51.759338%, 100%)" offset="0.5"/><stop stop-opacity="1" stop-color="rgb(14.898682%, 51.759338%, 100%)" offset="0.5056"/><stop stop-opacity="1" stop-color="rgb(14.898682%, 51.759338%, 100%)" offset="1"/></linearGradient><clipPath id="55ea6fd80c"><rect x="0" width="351" y="0" height="95"/></clipPath></defs><g fill="#f4f4f4" fill-opacity="1"><g transform="translate(99.501862, 134.767125)"><g><path d="M 11.6875 -8.109375 C 12.238281 -7.703125 12.679688 -7.179688 13.015625 -6.546875 C 13.347656 -5.921875 13.515625 -5.238281 13.515625 -4.5 C 13.515625 -3.863281 13.398438 -3.273438 13.171875 -2.734375 C 12.941406 -2.191406 12.617188 -1.710938 12.203125 -1.296875 C 11.796875 -0.890625 11.320312 -0.570312 10.78125 -0.34375 C 10.238281 -0.113281 9.648438 0 9.015625 0 L 1.390625 0 L 1.390625 -16.3125 L 9.015625 -16.3125 C 9.648438 -16.3125 10.238281 -16.1875 10.78125 -15.9375 C 11.320312 -15.6875 11.796875 -15.351562 12.203125 -14.9375 C 12.617188 -14.519531 12.941406 -14.035156 13.171875 -13.484375 C 13.398438 -12.929688 13.515625 -12.347656 13.515625 -11.734375 C 13.515625 -10.972656 13.347656 -10.28125 13.015625 -9.65625 C 12.679688 -9.039062 12.238281 -8.523438 11.6875 -8.109375 Z M 9.015625 -14.5625 L 3.140625 -14.5625 L 3.140625 -1.75 L 9.015625 -1.75 C 9.796875 -1.75 10.445312 -2.007812 10.96875 -2.53125 C 11.5 -3.0625 11.765625 -3.71875 11.765625 -4.5 C 11.765625 -5.269531 11.5 -5.921875 10.96875 -6.453125 C 10.445312 -6.984375 9.796875 -7.25 9.015625 -7.25 L 6.40625 -7.25 L 5.40625 -8.984375 L 9.015625 -8.984375 C 9.796875 -8.984375 10.445312 -9.25 10.96875 -9.78125 C 11.5 -10.3125 11.765625 -10.960938 11.765625 -11.734375 C 11.765625 -12.128906 11.691406 -12.492188 11.546875 -12.828125 C 11.398438 -13.171875 11.203125 -13.472656 10.953125 -13.734375 C 10.703125 -13.992188 10.410156 -14.195312 10.078125 -14.34375 C 9.742188 -14.488281 9.390625 -14.5625 9.015625 -14.5625 Z M 9.015625 -14.5625 "/></g></g></g><g fill="#f4f4f4" fill-opacity="1"><g transform="translate(114.397805, 134.767125)"><g><path d="M 8.859375 -6.46875 L 1.390625 -16.3125 L 3.578125 -16.3125 L 9.71875 -8.234375 L 15.484375 -16.3125 L 17.625 -16.3125 L 10.59375 -6.46875 L 10.59375 0 L 8.859375 0 Z M 8.859375 -6.46875 "/></g></g></g><g fill="#f4f4f4" fill-opacity="1"><g transform="translate(133.399144, 134.767125)"><g/></g></g><g fill="#f4f4f4" fill-opacity="1"><g transform="translate(141.720899, 134.767125)"><g><path d="M 3.140625 -16.3125 L 3.140625 -1.75 L 13.4375 -1.75 L 14.4375 0 L 1.390625 0 L 1.390625 -16.3125 Z M 3.140625 -16.3125 "/></g></g></g><g fill="#f4f4f4" fill-opacity="1"><g transform="translate(157.532236, 134.767125)"><g><path d="M 3.140625 -13.265625 L 3.140625 -7.125 C 3.140625 -5.945312 3.40625 -4.960938 3.9375 -4.171875 C 4.476562 -3.390625 5.140625 -2.800781 5.921875 -2.40625 C 6.710938 -2.019531 7.566406 -1.828125 8.484375 -1.828125 C 9.410156 -1.828125 10.265625 -2.023438 11.046875 -2.421875 C 11.835938 -2.828125 12.492188 -3.421875 13.015625 -4.203125 C 13.546875 -4.992188 13.8125 -5.976562 13.8125 -7.15625 L 13.8125 -16.34375 L 15.5625 -16.34375 L 15.5625 -7.125 C 15.5625 -6.113281 15.367188 -5.175781 14.984375 -4.3125 C 14.597656 -3.457031 14.082031 -2.710938 13.4375 -2.078125 C 12.800781 -1.453125 12.066406 -0.957031 11.234375 -0.59375 C 10.398438 -0.238281 9.535156 -0.0390625 8.640625 0 C 7.742188 0.0390625 6.847656 -0.109375 5.953125 -0.453125 C 5.054688 -0.796875 4.226562 -1.347656 3.46875 -2.109375 C 2.769531 -2.804688 2.25 -3.59375 1.90625 -4.46875 C 1.5625 -5.351562 1.390625 -6.238281 1.390625 -7.125 L 1.390625 -16.34375 Z M 3.140625 -13.265625 "/></g></g></g><g fill="#f4f4f4" fill-opacity="1"><g transform="translate(174.480877, 134.767125)"><g><path d="M 14.984375 -16.40625 L 14.984375 0.859375 L 3.140625 -11.796875 L 3.140625 0 L 1.390625 0 L 1.390625 -16.40625 L 13.234375 -3.75 L 13.234375 -13.3125 Z M 14.984375 -16.40625 "/></g></g></g><g fill="#f4f4f4" fill-opacity="1"><g transform="translate(190.846996, 134.767125)"><g><path d="M 1.390625 0 L 8.859375 -16.203125 L 16.3125 0 L 14.375 0 L 8.859375 -12.015625 L 3.296875 0 Z M 1.390625 0 "/></g></g></g><g fill="#f4f4f4" fill-opacity="1"><g transform="translate(208.544589, 134.767125)"><g><path d="M 8.984375 -5.90625 L 14.5625 0 L 12.1875 0 L 4.96875 -7.609375 L 8.359375 -7.609375 C 8.835938 -7.609375 9.285156 -7.695312 9.703125 -7.875 C 10.117188 -8.0625 10.484375 -8.3125 10.796875 -8.625 C 11.109375 -8.945312 11.359375 -9.316406 11.546875 -9.734375 C 11.734375 -10.160156 11.828125 -10.613281 11.828125 -11.09375 C 11.828125 -11.582031 11.734375 -12.03125 11.546875 -12.4375 C 11.359375 -12.851562 11.109375 -13.21875 10.796875 -13.53125 C 10.484375 -13.851562 10.113281 -14.101562 9.6875 -14.28125 C 9.257812 -14.46875 8.816406 -14.5625 8.359375 -14.5625 L 3.140625 -14.5625 L 3.140625 0 L 1.390625 0 L 1.390625 -16.3125 L 8.359375 -16.3125 C 9.078125 -16.3125 9.75 -16.171875 10.375 -15.890625 C 11.007812 -15.617188 11.5625 -15.242188 12.03125 -14.765625 C 12.5 -14.296875 12.867188 -13.75 13.140625 -13.125 C 13.421875 -12.5 13.5625 -11.820312 13.5625 -11.09375 C 13.5625 -10.425781 13.445312 -9.796875 13.21875 -9.203125 C 12.988281 -8.617188 12.664062 -8.09375 12.25 -7.625 C 11.832031 -7.164062 11.347656 -6.78125 10.796875 -6.46875 C 10.242188 -6.164062 9.640625 -5.976562 8.984375 -5.90625 Z M 8.984375 -5.90625 "/></g></g></g><g fill="#f4f4f4" fill-opacity="1"><g transform="translate(224.494616, 134.767125)"><g/></g></g><g fill="#f4f4f4" fill-opacity="1"><g transform="translate(232.81637, 134.767125)"><g><path d="M 3.140625 -16.3125 L 3.140625 -1.75 L 13.4375 -1.75 L 14.4375 0 L 1.390625 0 L 1.390625 -16.3125 Z M 3.140625 -16.3125 "/></g></g></g><g fill="#f4f4f4" fill-opacity="1"><g transform="translate(248.627707, 134.767125)"><g><path d="M 1.390625 0 L 8.859375 -16.203125 L 16.3125 0 L 14.375 0 L 8.859375 -12.015625 L 3.296875 0 Z M 1.390625 0 "/></g></g></g><g fill="#f4f4f4" fill-opacity="1"><g transform="translate(266.325301, 134.767125)"><g><path d="M 11.6875 -8.109375 C 12.238281 -7.703125 12.679688 -7.179688 13.015625 -6.546875 C 13.347656 -5.921875 13.515625 -5.238281 13.515625 -4.5 C 13.515625 -3.863281 13.398438 -3.273438 13.171875 -2.734375 C 12.941406 -2.191406 12.617188 -1.710938 12.203125 -1.296875 C 11.796875 -0.890625 11.320312 -0.570312 10.78125 -0.34375 C 10.238281 -0.113281 9.648438 0 9.015625 0 L 1.390625 0 L 1.390625 -16.3125 L 9.015625 -16.3125 C 9.648438 -16.3125 10.238281 -16.1875 10.78125 -15.9375 C 11.320312 -15.6875 11.796875 -15.351562 12.203125 -14.9375 C 12.617188 -14.519531 12.941406 -14.035156 13.171875 -13.484375 C 13.398438 -12.929688 13.515625 -12.347656 13.515625 -11.734375 C 13.515625 -10.972656 13.347656 -10.28125 13.015625 -9.65625 C 12.679688 -9.039062 12.238281 -8.523438 11.6875 -8.109375 Z M 9.015625 -14.5625 L 3.140625 -14.5625 L 3.140625 -1.75 L 9.015625 -1.75 C 9.796875 -1.75 10.445312 -2.007812 10.96875 -2.53125 C 11.5 -3.0625 11.765625 -3.71875 11.765625 -4.5 C 11.765625 -5.269531 11.5 -5.921875 10.96875 -6.453125 C 10.445312 -6.984375 9.796875 -7.25 9.015625 -7.25 L 6.40625 -7.25 L 5.40625 -8.984375 L 9.015625 -8.984375 C 9.796875 -8.984375 10.445312 -9.25 10.96875 -9.78125 C 11.5 -10.3125 11.765625 -10.960938 11.765625 -11.734375 C 11.765625 -12.128906 11.691406 -12.492188 11.546875 -12.828125 C 11.398438 -13.171875 11.203125 -13.472656 10.953125 -13.734375 C 10.703125 -13.992188 10.410156 -14.195312 10.078125 -14.34375 C 9.742188 -14.488281 9.390625 -14.5625 9.015625 -14.5625 Z M 9.015625 -14.5625 "/></g></g></g><g fill="#f4f4f4" fill-opacity="1"><g transform="translate(281.221244, 134.767125)"><g><path d="M 2.109375 -1.75 L 9.71875 -1.75 C 10.101562 -1.75 10.460938 -1.816406 10.796875 -1.953125 C 11.128906 -2.097656 11.421875 -2.289062 11.671875 -2.53125 C 11.921875 -2.78125 12.117188 -3.066406 12.265625 -3.390625 C 12.410156 -3.722656 12.484375 -4.082031 12.484375 -4.46875 C 12.484375 -5.28125 12.207031 -5.863281 11.65625 -6.21875 C 11.113281 -6.570312 10.429688 -6.828125 9.609375 -6.984375 C 8.785156 -7.140625 7.894531 -7.257812 6.9375 -7.34375 C 5.976562 -7.425781 5.085938 -7.597656 4.265625 -7.859375 C 3.441406 -8.128906 2.753906 -8.5625 2.203125 -9.15625 C 1.660156 -9.75 1.390625 -10.628906 1.390625 -11.796875 C 1.390625 -12.421875 1.507812 -13.007812 1.75 -13.5625 C 1.988281 -14.125 2.3125 -14.609375 2.71875 -15.015625 C 3.125 -15.421875 3.597656 -15.738281 4.140625 -15.96875 C 4.691406 -16.195312 5.28125 -16.3125 5.90625 -16.3125 L 12.765625 -16.3125 L 13.765625 -14.5625 L 5.90625 -14.5625 C 5.519531 -14.5625 5.160156 -14.488281 4.828125 -14.34375 C 4.492188 -14.195312 4.203125 -14 3.953125 -13.75 C 3.703125 -13.5 3.503906 -13.207031 3.359375 -12.875 C 3.210938 -12.539062 3.140625 -12.179688 3.140625 -11.796875 C 3.140625 -11.160156 3.296875 -10.671875 3.609375 -10.328125 C 3.921875 -9.992188 4.335938 -9.726562 4.859375 -9.53125 C 5.390625 -9.332031 5.984375 -9.191406 6.640625 -9.109375 C 7.296875 -9.023438 7.972656 -8.941406 8.671875 -8.859375 C 9.367188 -8.773438 10.046875 -8.660156 10.703125 -8.515625 C 11.367188 -8.367188 11.96875 -8.140625 12.5 -7.828125 C 13.03125 -7.523438 13.453125 -7.101562 13.765625 -6.5625 C 14.078125 -6.03125 14.234375 -5.332031 14.234375 -4.46875 C 14.234375 -3.84375 14.113281 -3.253906 13.875 -2.703125 C 13.632812 -2.160156 13.3125 -1.6875 12.90625 -1.28125 C 12.5 -0.882812 12.015625 -0.570312 11.453125 -0.34375 C 10.898438 -0.113281 10.320312 0 9.71875 0 L 3.109375 0 Z M 2.109375 -1.75 "/></g></g></g><g transform="matrix(1, 0, 0, 1, 92, 26)"><g clip-path="url(#55ea6fd80c)"><g clip-path="url(#58c5fb2610)"><g transform="matrix(1, 0, 0, 1, 0.000000000000014211, 0.000000000000007105)"><g clip-path="url(#95ab1a483d)"><g fill="#f4f4f4" fill-opacity="1"><g transform="translate(1.433967, 70.282282)"><g><path d="M 34.15625 0.78125 C 30.007812 0.78125 26.132812 0.00390625 22.53125 -1.546875 C 18.925781 -3.109375 15.742188 -5.269531 12.984375 -8.03125 C 10.234375 -10.789062 8.078125 -13.96875 6.515625 -17.5625 C 4.960938 -21.164062 4.1875 -25.046875 4.1875 -29.203125 C 4.1875 -33.347656 4.960938 -37.222656 6.515625 -40.828125 C 8.078125 -44.429688 10.234375 -47.609375 12.984375 -50.359375 C 15.742188 -53.117188 18.925781 -55.273438 22.53125 -56.828125 C 26.132812 -58.390625 30.007812 -59.171875 34.15625 -59.171875 C 39.863281 -59.171875 45.035156 -57.726562 49.671875 -54.84375 C 54.316406 -51.957031 57.90625 -48.175781 60.4375 -43.5 L 52.265625 -39.125 C 50.578125 -42.363281 48.125 -44.941406 44.90625 -46.859375 C 41.695312 -48.773438 38.113281 -49.734375 34.15625 -49.734375 C 30.332031 -49.734375 26.863281 -48.820312 23.75 -47 C 20.632812 -45.1875 18.164062 -42.738281 16.34375 -39.65625 C 14.53125 -36.570312 13.625 -33.085938 13.625 -29.203125 C 13.625 -25.304688 14.53125 -21.816406 16.34375 -18.734375 C 18.164062 -15.648438 20.632812 -13.195312 23.75 -11.375 C 26.863281 -9.5625 30.332031 -8.65625 34.15625 -8.65625 C 38.113281 -8.65625 41.695312 -9.628906 44.90625 -11.578125 C 48.125 -13.523438 50.578125 -16.085938 52.265625 -19.265625 L 60.4375 -14.890625 C 57.90625 -10.222656 54.316406 -6.441406 49.671875 -3.546875 C 45.035156 -0.660156 39.863281 0.78125 34.15625 0.78125 Z M 34.15625 0.78125 "/></g></g></g><g clip-path="url(#6adf807704)"><g fill="#f4f4f4" fill-opacity="1"><g transform="translate(63.127825, 70.282282)"><g><path d="M 6.421875 0 L 6.421875 -69.296875 L 15.671875 -69.296875 L 15.671875 0 Z M 6.421875 0 "/></g></g></g></g><g fill="#f4f4f4" fill-opacity="1"><g transform="translate(83.66868, 70.282282)"><g/></g></g><g fill="#f4f4f4" fill-opacity="1"><g transform="translate(105.465696, 70.282282)"><g/></g></g><g fill="#f4f4f4" fill-opacity="1"><g transform="translate(127.262711, 70.282282)"><g/></g></g><g clip-path="url(#9b366dfcbd)"><g fill="#f4f4f4" fill-opacity="1"><g transform="translate(149.068032, 70.282282)"><g><path d="M 36.015625 -69.296875 L 45.25 -69.296875 L 45.25 0 L 36.015625 0 L 36.015625 -4.09375 C 34.390625 -2.59375 32.503906 -1.40625 30.359375 -0.53125 C 28.222656 0.34375 25.921875 0.78125 23.453125 0.78125 C 19.816406 0.78125 16.488281 -0.125 13.46875 -1.9375 C 10.457031 -3.757812 8.078125 -6.191406 6.328125 -9.234375 C 4.578125 -12.285156 3.703125 -15.695312 3.703125 -19.46875 C 3.703125 -23.226562 4.578125 -26.632812 6.328125 -29.6875 C 8.078125 -32.738281 10.457031 -35.171875 13.46875 -36.984375 C 16.488281 -38.796875 19.816406 -39.703125 23.453125 -39.703125 C 25.921875 -39.703125 28.222656 -39.265625 30.359375 -38.390625 C 32.503906 -37.515625 34.390625 -36.332031 36.015625 -34.84375 Z M 24.625 -7.78125 C 26.757812 -7.78125 28.71875 -8.300781 30.5 -9.34375 C 32.289062 -10.382812 33.703125 -11.796875 34.734375 -13.578125 C 35.773438 -15.359375 36.296875 -17.320312 36.296875 -19.46875 C 36.296875 -21.675781 35.773438 -23.65625 34.734375 -25.40625 C 33.703125 -27.15625 32.289062 -28.546875 30.5 -29.578125 C 28.71875 -30.617188 26.757812 -31.140625 24.625 -31.140625 C 22.476562 -31.140625 20.515625 -30.617188 18.734375 -29.578125 C 16.953125 -28.546875 15.539062 -27.15625 14.5 -25.40625 C 13.457031 -23.65625 12.9375 -21.675781 12.9375 -19.46875 C 12.9375 -17.320312 13.457031 -15.359375 14.5 -13.578125 C 15.539062 -11.796875 16.953125 -10.382812 18.734375 -9.34375 C 20.515625 -8.300781 22.476562 -7.78125 24.625 -7.78125 Z M 24.625 -7.78125 "/></g></g></g></g><g fill="#2684ff" fill-opacity="1"><g transform="translate(199.188037, 70.282282)"><g><path d="M 43.890625 -58.390625 L 53.4375 -58.390625 L 53.4375 0 L 43.890625 0 L 43.890625 -24.8125 L 15.96875 -24.8125 L 15.96875 0 L 6.421875 0 L 6.421875 -58.390625 L 15.96875 -58.390625 L 15.96875 -33.671875 L 43.890625 -33.671875 Z M 43.890625 -58.390625 "/></g></g></g><g fill="#2684ff" fill-opacity="1"><g transform="translate(257.476071, 70.282282)"><g><path d="M 21.703125 0.78125 C 16.578125 0.78125 12.570312 -0.578125 9.6875 -3.296875 C 6.800781 -6.023438 5.359375 -9.726562 5.359375 -14.40625 L 5.359375 -38.921875 L 14.5 -38.921875 L 14.5 -15.578125 C 14.5 -13.171875 15.179688 -11.269531 16.546875 -9.875 C 17.910156 -8.476562 19.628906 -7.78125 21.703125 -7.78125 C 23.773438 -7.78125 25.492188 -8.476562 26.859375 -9.875 C 28.222656 -11.269531 28.90625 -13.171875 28.90625 -15.578125 L 28.90625 -38.921875 L 38.046875 -38.921875 L 38.046875 -14.40625 C 38.046875 -9.726562 36.601562 -6.023438 33.71875 -3.296875 C 30.832031 -0.578125 26.828125 0.78125 21.703125 0.78125 Z M 21.703125 0.78125 "/></g></g></g><g clip-path="url(#952e3f7f02)"><g fill="#2684ff" fill-opacity="1"><g transform="translate(299.318821, 70.282282)"><g><path d="M 28.21875 -39.703125 C 31.914062 -39.703125 35.253906 -38.796875 38.234375 -36.984375 C 41.222656 -35.171875 43.59375 -32.738281 45.34375 -29.6875 C 47.101562 -26.632812 47.984375 -23.226562 47.984375 -19.46875 C 47.984375 -15.695312 47.101562 -12.285156 45.34375 -9.234375 C 43.59375 -6.191406 41.222656 -3.757812 38.234375 -1.9375 C 35.253906 -0.125 31.914062 0.78125 28.21875 0.78125 C 25.757812 0.78125 23.472656 0.34375 21.359375 -0.53125 C 19.253906 -1.40625 17.359375 -2.59375 15.671875 -4.09375 L 15.671875 0 L 6.421875 0 L 6.421875 -69.296875 L 15.671875 -69.296875 L 15.671875 -34.84375 C 17.359375 -36.332031 19.253906 -37.515625 21.359375 -38.390625 C 23.472656 -39.265625 25.757812 -39.703125 28.21875 -39.703125 Z M 27.0625 -7.78125 C 29.257812 -7.78125 31.234375 -8.300781 32.984375 -9.34375 C 34.742188 -10.382812 36.140625 -11.796875 37.171875 -13.578125 C 38.210938 -15.359375 38.734375 -17.320312 38.734375 -19.46875 C 38.734375 -21.675781 38.210938 -23.65625 37.171875 -25.40625 C 36.140625 -27.15625 34.742188 -28.546875 32.984375 -29.578125 C 31.234375 -30.617188 29.257812 -31.140625 27.0625 -31.140625 C 24.914062 -31.140625 22.945312 -30.617188 21.15625 -29.578125 C 19.375 -28.546875 17.960938 -27.15625 16.921875 -25.40625 C 15.890625 -23.65625 15.375 -21.675781 15.375 -19.46875 C 15.375 -17.320312 15.890625 -15.359375 16.921875 -13.578125 C 17.960938 -11.796875 19.375 -10.382812 21.15625 -9.34375 C 22.945312 -8.300781 24.914062 -7.78125 27.0625 -7.78125 Z M 27.0625 -7.78125 "/></g></g></g></g></g></g></g><g clip-path="url(#54eea6b8a0)"><path fill="#2684ff" d="M 136.324219 29.375 L 115.023438 29.375 C 115.023438 31.925781 116.035156 34.371094 117.839844 36.171875 C 119.644531 37.976562 122.089844 38.988281 124.640625 38.988281 L 128.5625 38.988281 L 128.5625 42.777344 C 128.566406 48.082031 132.867188 52.382812 138.171875 52.386719 L 138.171875 31.222656 C 138.171875 30.199219 137.347656 29.375 136.324219 29.375 Z M 136.324219 29.375 " fill-opacity="1" fill-rule="nonzero"/></g><g clip-path="url(#b7ae726089)"><g clip-path="url(#3d948b6fe5)"><path fill="url(#94615e48ec)" d="M 104.484375 39.988281 L 104.484375 63 L 127.632812 63 L 127.632812 39.988281 Z M 104.484375 39.988281 " fill-rule="nonzero"/></g></g><g clip-path="url(#77094da80f)"><g clip-path="url(#82c74c5688)"><path fill="url(#7f3654cf81)" d="M 93.9375 50.59375 L 93.9375 73.605469 L 117.089844 73.605469 L 117.089844 50.59375 Z M 93.9375 50.59375 " fill-rule="nonzero"/></g></g></g></g></svg>