<svg xmlns="http://www.w3.org/2000/svg" xmlns:xlink="http://www.w3.org/1999/xlink" width="959" zoomAndPan="magnify" viewBox="0 0 719.25 150.749998" height="201" preserveAspectRatio="xMidYMid meet" version="1.0"><defs><filter x="0%" y="0%" width="100%" height="100%" id="82fe8bb3d8"><feColorMatrix values="0 0 0 0 1 0 0 0 0 1 0 0 0 0 1 0 0 0 1 0" color-interpolation-filters="sRGB"/></filter><g/><mask id="003a365b4d"><g filter="url(#82fe8bb3d8)"><rect x="-71.925" width="863.1" fill="#000000" y="-15.075" height="180.899997" fill-opacity="0.35"/></g></mask><clipPath id="5ec0ee334c"><path d="M 0.609375 0.785156 L 653.046875 0.785156 L 653.046875 83.925781 L 0.609375 83.925781 Z M 0.609375 0.785156 " clip-rule="nonzero"/></clipPath><clipPath id="2e01221fcc"><rect x="0" width="654" y="0" height="84"/></clipPath><clipPath id="8e411ba64f"><rect x="0" width="654" y="0" height="84"/></clipPath><mask id="20aa64740c"><g filter="url(#82fe8bb3d8)"><rect x="-71.925" width="863.1" fill="#000000" y="-15.075" height="180.899997" fill-opacity="0.35"/></g></mask><clipPath id="6e0d4d21bb"><path d="M 0.609375 0.785156 L 653.046875 0.785156 L 653.046875 83.925781 L 0.609375 83.925781 Z M 0.609375 0.785156 " clip-rule="nonzero"/></clipPath><clipPath id="ce2d07fd29"><rect x="0" width="654" y="0" height="84"/></clipPath><clipPath id="7f91933063"><rect x="0" width="654" y="0" height="84"/></clipPath></defs><g mask="url(#003a365b4d)"><g transform="matrix(1, 0, 0, 1, 31, 33)"><g clip-path="url(#8e411ba64f)"><g clip-path="url(#5ec0ee334c)"><g transform="matrix(1, 0, 0, 1, 0.000000000000003553, 0)"><g clip-path="url(#2e01221fcc)"><g fill="#ffffff" fill-opacity="1"><g transform="translate(1.040856, 63.055345)"><g><path d="M 26.984375 -58.078125 C 33.929688 -58.078125 39.222656 -56.640625 42.859375 -53.765625 C 46.492188 -50.898438 48.3125 -46.785156 48.3125 -41.421875 C 48.3125 -37.046875 47.09375 -33.476562 44.65625 -30.71875 C 42.226562 -27.957031 38.960938 -26.273438 34.859375 -25.671875 L 50.28125 0 L 37.8125 0 L 24.359375 -24.609375 L 16.8125 -24.609375 L 16.8125 0 L 6.484375 0 L 6.484375 -58.078125 Z M 25.34375 -33.46875 C 29.832031 -33.46875 32.976562 -34.132812 34.78125 -35.46875 C 36.582031 -36.8125 37.484375 -38.828125 37.484375 -41.515625 C 37.484375 -46.648438 33.6875 -49.21875 26.09375 -49.21875 L 16.8125 -49.21875 L 16.8125 -33.46875 Z M 25.34375 -33.46875 "/></g></g></g><g fill="#ffffff" fill-opacity="1"><g transform="translate(48.616866, 63.055345)"><g><path d="M 15.421875 -39.375 L 15.421875 -19.03125 C 15.421875 -15.09375 16.019531 -12.25 17.21875 -10.5 C 18.425781 -8.75 20.234375 -7.875 22.640625 -7.875 C 25.597656 -7.875 27.84375 -8.773438 29.375 -10.578125 C 30.90625 -12.390625 31.671875 -14.828125 31.671875 -17.890625 L 31.671875 -39.375 L 41.515625 -39.375 L 41.515625 0 L 32.15625 0 L 32.15625 -6.3125 L 32 -6.3125 C 29.695312 -1.445312 25.675781 0.984375 19.9375 0.984375 C 15.507812 0.984375 12.007812 -0.335938 9.4375 -2.984375 C 6.863281 -5.640625 5.578125 -9.375 5.578125 -14.1875 L 5.578125 -39.375 Z M 15.421875 -39.375 "/></g></g></g><g fill="#ffffff" fill-opacity="1"><g transform="translate(91.599309, 63.055345)"><g><path d="M 16.328125 -58.078125 L 16.328125 -36.421875 L 7.953125 -36.421875 L 7.953125 -58.078125 Z M 16.328125 -58.078125 "/></g></g></g><g fill="#ffffff" fill-opacity="1"><g transform="translate(111.778023, 63.055345)"><g><path d="M 11.078125 -39.375 L 22.0625 -12.0625 L 22.234375 -12.0625 L 32.078125 -39.375 L 42.328125 -39.375 L 24.359375 6.734375 C 22.609375 10.992188 21.128906 13.832031 19.921875 15.25 C 18.722656 16.675781 17.25 17.769531 15.5 18.53125 C 13.75 19.300781 11.484375 19.6875 8.703125 19.6875 C 6.128906 19.6875 3.613281 19.359375 1.15625 18.703125 L 2.375 9.84375 C 4.238281 10.5 5.910156 10.828125 7.390625 10.828125 C 9.410156 10.828125 10.953125 10.484375 12.015625 9.796875 C 13.085938 9.117188 14.195312 7.382812 15.34375 4.59375 L 17.0625 0.328125 L 0.25 -39.375 Z M 11.078125 -39.375 "/></g></g></g><g fill="#ffffff" fill-opacity="1"><g transform="translate(150.248935, 63.055345)"><g><path d="M 22.234375 -40.359375 C 27.867188 -40.359375 32.078125 -39.003906 34.859375 -36.296875 C 37.648438 -33.585938 39.046875 -29.335938 39.046875 -23.546875 L 39.046875 0 L 30.1875 0 L 30.1875 -5.421875 L 29.9375 -5.421875 C 27.257812 -1.148438 23.050781 0.984375 17.3125 0.984375 C 13.039062 0.984375 9.578125 -0.117188 6.921875 -2.328125 C 4.273438 -4.546875 2.953125 -7.378906 2.953125 -10.828125 C 2.953125 -15.421875 4.863281 -18.851562 8.6875 -21.125 C 12.519531 -23.394531 18.675781 -24.53125 27.15625 -24.53125 L 30.1875 -24.53125 L 30.1875 -25.671875 C 30.1875 -27.972656 29.363281 -29.765625 27.71875 -31.046875 C 26.082031 -32.335938 23.898438 -32.984375 21.171875 -32.984375 C 17.117188 -32.984375 13.617188 -31.613281 10.671875 -28.875 L 5.5 -34.046875 C 9.601562 -38.253906 15.179688 -40.359375 22.234375 -40.359375 Z M 12.796875 -11.5625 C 12.796875 -9.875 13.492188 -8.59375 14.890625 -7.71875 C 16.285156 -6.84375 17.910156 -6.40625 19.765625 -6.40625 C 23.160156 -6.40625 25.648438 -7.238281 27.234375 -8.90625 C 28.816406 -10.570312 29.609375 -12.660156 29.609375 -15.171875 L 29.609375 -17.640625 L 26.75 -17.640625 C 17.445312 -17.640625 12.796875 -15.613281 12.796875 -11.5625 Z M 12.796875 -11.5625 "/></g></g></g><g fill="#ffffff" fill-opacity="1"><g transform="translate(190.196358, 63.055345)"><g/></g></g><g fill="#ffffff" fill-opacity="1"><g transform="translate(210.375072, 63.055345)"><g><path d="M 34.046875 -59.5625 C 42.191406 -59.5625 48.972656 -56.5 54.390625 -50.375 L 46.34375 -44.46875 C 42.738281 -48.289062 38.664062 -50.203125 34.125 -50.203125 C 28.269531 -50.203125 23.484375 -48.207031 19.765625 -44.21875 C 16.046875 -40.226562 14.1875 -35.304688 14.1875 -29.453125 C 14.1875 -23.160156 16.046875 -17.988281 19.765625 -13.9375 C 23.484375 -9.894531 28.269531 -7.875 34.125 -7.875 C 39.101562 -7.875 43.453125 -10.226562 47.171875 -14.9375 L 55.703125 -8.859375 C 53.179688 -5.304688 50.003906 -2.691406 46.171875 -1.015625 C 42.347656 0.648438 38.304688 1.484375 34.046875 1.484375 C 24.910156 1.484375 17.507812 -1.359375 11.84375 -7.046875 C 6.1875 -12.742188 3.359375 -19.992188 3.359375 -28.796875 C 3.359375 -37.929688 6.175781 -45.34375 11.8125 -51.03125 C 17.445312 -56.71875 24.859375 -59.5625 34.046875 -59.5625 Z M 34.046875 -59.5625 "/></g></g></g><g fill="#ffffff" fill-opacity="1"><g transform="translate(262.462594, 63.055345)"><g><path d="M 22.234375 -40.359375 C 27.867188 -40.359375 32.078125 -39.003906 34.859375 -36.296875 C 37.648438 -33.585938 39.046875 -29.335938 39.046875 -23.546875 L 39.046875 0 L 30.1875 0 L 30.1875 -5.421875 L 29.9375 -5.421875 C 27.257812 -1.148438 23.050781 0.984375 17.3125 0.984375 C 13.039062 0.984375 9.578125 -0.117188 6.921875 -2.328125 C 4.273438 -4.546875 2.953125 -7.378906 2.953125 -10.828125 C 2.953125 -15.421875 4.863281 -18.851562 8.6875 -21.125 C 12.519531 -23.394531 18.675781 -24.53125 27.15625 -24.53125 L 30.1875 -24.53125 L 30.1875 -25.671875 C 30.1875 -27.972656 29.363281 -29.765625 27.71875 -31.046875 C 26.082031 -32.335938 23.898438 -32.984375 21.171875 -32.984375 C 17.117188 -32.984375 13.617188 -31.613281 10.671875 -28.875 L 5.5 -34.046875 C 9.601562 -38.253906 15.179688 -40.359375 22.234375 -40.359375 Z M 12.796875 -11.5625 C 12.796875 -9.875 13.492188 -8.59375 14.890625 -7.71875 C 16.285156 -6.84375 17.910156 -6.40625 19.765625 -6.40625 C 23.160156 -6.40625 25.648438 -7.238281 27.234375 -8.90625 C 28.816406 -10.570312 29.609375 -12.660156 29.609375 -15.171875 L 29.609375 -17.640625 L 26.75 -17.640625 C 17.445312 -17.640625 12.796875 -15.613281 12.796875 -11.5625 Z M 12.796875 -11.5625 "/></g></g></g><g fill="#ffffff" fill-opacity="1"><g transform="translate(302.410017, 63.055345)"><g><path d="M 27.234375 -40.359375 C 28.054688 -40.359375 29.234375 -40.164062 30.765625 -39.78125 L 30.765625 -30.265625 C 29.066406 -30.765625 27.476562 -31.015625 26 -31.015625 C 22.78125 -31.015625 20.210938 -30.054688 18.296875 -28.140625 C 16.378906 -26.222656 15.421875 -23.679688 15.421875 -20.515625 L 15.421875 0 L 5.578125 0 L 5.578125 -39.375 L 15.421875 -39.375 L 15.421875 -33.140625 L 15.59375 -33.140625 C 16.6875 -35.441406 18.242188 -37.21875 20.265625 -38.46875 C 22.285156 -39.726562 24.609375 -40.359375 27.234375 -40.359375 Z M 27.234375 -40.359375 "/></g></g></g><g fill="#ffffff" fill-opacity="1"><g transform="translate(328.740811, 63.055345)"><g><path d="M 25.015625 -40.359375 C 30.921875 -40.359375 35.472656 -38.390625 38.671875 -34.453125 C 41.878906 -30.515625 43.484375 -25.375 43.484375 -19.03125 L 43.484375 -16.25 L 13.453125 -16.25 C 13.785156 -13.40625 14.921875 -11.132812 16.859375 -9.4375 C 18.796875 -7.738281 21.1875 -6.890625 24.03125 -6.890625 C 28.1875 -6.890625 31.71875 -8.664062 34.625 -12.21875 L 41.671875 -6.890625 C 37.410156 -1.640625 31.859375 0.984375 25.015625 0.984375 C 19.003906 0.984375 13.929688 -0.925781 9.796875 -4.75 C 5.671875 -8.582031 3.609375 -13.5625 3.609375 -19.6875 C 3.609375 -25.8125 5.671875 -30.785156 9.796875 -34.609375 C 13.929688 -38.441406 19.003906 -40.359375 25.015625 -40.359375 Z M 33.640625 -23.625 C 33.578125 -26.738281 32.613281 -29.078125 30.75 -30.640625 C 28.894531 -32.203125 26.492188 -32.984375 23.546875 -32.984375 C 20.585938 -32.984375 18.257812 -32.117188 16.5625 -30.390625 C 14.875 -28.671875 13.835938 -26.414062 13.453125 -23.625 Z M 33.640625 -23.625 "/></g></g></g><g fill="#ffffff" fill-opacity="1"><g transform="translate(371.723249, 63.055345)"><g><path d="M 25.015625 -40.359375 C 30.921875 -40.359375 35.472656 -38.390625 38.671875 -34.453125 C 41.878906 -30.515625 43.484375 -25.375 43.484375 -19.03125 L 43.484375 -16.25 L 13.453125 -16.25 C 13.785156 -13.40625 14.921875 -11.132812 16.859375 -9.4375 C 18.796875 -7.738281 21.1875 -6.890625 24.03125 -6.890625 C 28.1875 -6.890625 31.71875 -8.664062 34.625 -12.21875 L 41.671875 -6.890625 C 37.410156 -1.640625 31.859375 0.984375 25.015625 0.984375 C 19.003906 0.984375 13.929688 -0.925781 9.796875 -4.75 C 5.671875 -8.582031 3.609375 -13.5625 3.609375 -19.6875 C 3.609375 -25.8125 5.671875 -30.785156 9.796875 -34.609375 C 13.929688 -38.441406 19.003906 -40.359375 25.015625 -40.359375 Z M 33.640625 -23.625 C 33.578125 -26.738281 32.613281 -29.078125 30.75 -30.640625 C 28.894531 -32.203125 26.492188 -32.984375 23.546875 -32.984375 C 20.585938 -32.984375 18.257812 -32.117188 16.5625 -30.390625 C 14.875 -28.671875 13.835938 -26.414062 13.453125 -23.625 Z M 33.640625 -23.625 "/></g></g></g><g fill="#ffffff" fill-opacity="1"><g transform="translate(414.705688, 63.055345)"><g><path d="M 27.234375 -40.359375 C 28.054688 -40.359375 29.234375 -40.164062 30.765625 -39.78125 L 30.765625 -30.265625 C 29.066406 -30.765625 27.476562 -31.015625 26 -31.015625 C 22.78125 -31.015625 20.210938 -30.054688 18.296875 -28.140625 C 16.378906 -26.222656 15.421875 -23.679688 15.421875 -20.515625 L 15.421875 0 L 5.578125 0 L 5.578125 -39.375 L 15.421875 -39.375 L 15.421875 -33.140625 L 15.59375 -33.140625 C 16.6875 -35.441406 18.242188 -37.21875 20.265625 -38.46875 C 22.285156 -39.726562 24.609375 -40.359375 27.234375 -40.359375 Z M 27.234375 -40.359375 "/></g></g></g><g fill="#ffffff" fill-opacity="1"><g transform="translate(442.512993, 63.055345)"><g><path d="M 19.03125 -40.359375 C 25.488281 -40.359375 30.191406 -38.363281 33.140625 -34.375 L 26.578125 -28.46875 C 24.609375 -31.144531 22.039062 -32.484375 18.875 -32.484375 C 17.28125 -32.484375 15.921875 -32.097656 14.796875 -31.328125 C 13.679688 -30.566406 13.125 -29.554688 13.125 -28.296875 C 13.125 -26.390625 15.066406 -25.023438 18.953125 -24.203125 L 22.484375 -23.375 C 26.796875 -22.445312 29.851562 -21.007812 31.65625 -19.0625 C 33.46875 -17.125 34.375 -14.65625 34.375 -11.65625 C 34.375 -7.820312 32.84375 -4.753906 29.78125 -2.453125 C 26.71875 -0.160156 22.5625 0.984375 17.3125 0.984375 C 10.695312 0.984375 5.609375 -1.039062 2.046875 -5.09375 L 8.609375 -11.234375 C 10.304688 -9.378906 11.863281 -8.109375 13.28125 -7.421875 C 14.707031 -6.742188 16.269531 -6.40625 17.96875 -6.40625 C 19.769531 -6.40625 21.3125 -6.8125 22.59375 -7.625 C 23.882812 -8.445312 24.53125 -9.539062 24.53125 -10.90625 C 24.53125 -13.15625 22.503906 -14.742188 18.453125 -15.671875 C 13.203125 -16.867188 9.921875 -17.8125 8.609375 -18.5 C 7.296875 -19.1875 6.242188 -20.003906 5.453125 -20.953125 C 4.660156 -21.910156 4.097656 -22.953125 3.765625 -24.078125 C 3.441406 -25.203125 3.28125 -26.390625 3.28125 -27.640625 C 3.28125 -31.523438 4.769531 -34.613281 7.75 -36.90625 C 10.726562 -39.207031 14.488281 -40.359375 19.03125 -40.359375 Z M 19.03125 -40.359375 "/></g></g></g><g fill="#ffffff" fill-opacity="1"><g transform="translate(474.831825, 63.055345)"><g/></g></g><g fill="#ffffff" fill-opacity="1"><g transform="translate(495.010519, 63.055345)"><g><path d="M 16.578125 -58.078125 L 16.578125 -21.40625 C 16.578125 -17.53125 17.75 -14.390625 20.09375 -11.984375 C 22.445312 -9.578125 25.617188 -8.375 29.609375 -8.375 C 33.609375 -8.375 36.78125 -9.578125 39.125 -11.984375 C 41.476562 -14.390625 42.65625 -17.53125 42.65625 -21.40625 L 42.65625 -58.078125 L 53 -58.078125 L 53 -20.921875 C 53 -14.523438 50.863281 -9.191406 46.59375 -4.921875 C 42.332031 -0.648438 36.671875 1.484375 29.609375 1.484375 C 22.609375 1.484375 16.960938 -0.648438 12.671875 -4.921875 C 8.378906 -9.191406 6.234375 -14.523438 6.234375 -20.921875 L 6.234375 -58.078125 Z M 16.578125 -58.078125 "/></g></g></g><g fill="#ffffff" fill-opacity="1"><g transform="translate(550.133095, 63.055345)"><g><path d="M 34.203125 -58.078125 L 59.234375 0 L 47.421875 0 L 42 -13.296875 L 16.8125 -13.296875 L 11.5625 0 L 0 0 L 25.265625 -58.078125 Z M 20.34375 -22.15625 L 38.390625 -22.15625 L 29.453125 -45.78125 Z M 20.34375 -22.15625 "/></g></g></g><g fill="#ffffff" fill-opacity="1"><g transform="translate(605.255671, 63.055345)"><g><path d="M 44.953125 -58.078125 L 44.953125 -48.734375 L 16.8125 -48.734375 L 16.8125 -34.453125 L 43.484375 -34.453125 L 43.484375 -25.109375 L 16.8125 -25.109375 L 16.8125 -9.359375 L 46.4375 -9.359375 L 46.4375 0 L 6.484375 0 L 6.484375 -58.078125 Z M 44.953125 -58.078125 "/></g></g></g></g></g></g></g></g></g><g mask="url(#20aa64740c)"><g transform="matrix(1, 0, 0, 1, 31, 33)"><g clip-path="url(#7f91933063)"><g clip-path="url(#6e0d4d21bb)"><g transform="matrix(1, 0, 0, 1, 0.000000000000003553, 0)"><g clip-path="url(#ce2d07fd29)"><g fill="#ffffff" fill-opacity="1"><g transform="translate(1.040856, 63.055345)"><g><path d="M 26.984375 -58.078125 C 33.929688 -58.078125 39.222656 -56.640625 42.859375 -53.765625 C 46.492188 -50.898438 48.3125 -46.785156 48.3125 -41.421875 C 48.3125 -37.046875 47.09375 -33.476562 44.65625 -30.71875 C 42.226562 -27.957031 38.960938 -26.273438 34.859375 -25.671875 L 50.28125 0 L 37.8125 0 L 24.359375 -24.609375 L 16.8125 -24.609375 L 16.8125 0 L 6.484375 0 L 6.484375 -58.078125 Z M 25.34375 -33.46875 C 29.832031 -33.46875 32.976562 -34.132812 34.78125 -35.46875 C 36.582031 -36.8125 37.484375 -38.828125 37.484375 -41.515625 C 37.484375 -46.648438 33.6875 -49.21875 26.09375 -49.21875 L 16.8125 -49.21875 L 16.8125 -33.46875 Z M 25.34375 -33.46875 "/></g></g></g><g fill="#ffffff" fill-opacity="1"><g transform="translate(48.616866, 63.055345)"><g><path d="M 15.421875 -39.375 L 15.421875 -19.03125 C 15.421875 -15.09375 16.019531 -12.25 17.21875 -10.5 C 18.425781 -8.75 20.234375 -7.875 22.640625 -7.875 C 25.597656 -7.875 27.84375 -8.773438 29.375 -10.578125 C 30.90625 -12.390625 31.671875 -14.828125 31.671875 -17.890625 L 31.671875 -39.375 L 41.515625 -39.375 L 41.515625 0 L 32.15625 0 L 32.15625 -6.3125 L 32 -6.3125 C 29.695312 -1.445312 25.675781 0.984375 19.9375 0.984375 C 15.507812 0.984375 12.007812 -0.335938 9.4375 -2.984375 C 6.863281 -5.640625 5.578125 -9.375 5.578125 -14.1875 L 5.578125 -39.375 Z M 15.421875 -39.375 "/></g></g></g><g fill="#ffffff" fill-opacity="1"><g transform="translate(91.599309, 63.055345)"><g><path d="M 16.328125 -58.078125 L 16.328125 -36.421875 L 7.953125 -36.421875 L 7.953125 -58.078125 Z M 16.328125 -58.078125 "/></g></g></g><g fill="#ffffff" fill-opacity="1"><g transform="translate(111.778023, 63.055345)"><g><path d="M 11.078125 -39.375 L 22.0625 -12.0625 L 22.234375 -12.0625 L 32.078125 -39.375 L 42.328125 -39.375 L 24.359375 6.734375 C 22.609375 10.992188 21.128906 13.832031 19.921875 15.25 C 18.722656 16.675781 17.25 17.769531 15.5 18.53125 C 13.75 19.300781 11.484375 19.6875 8.703125 19.6875 C 6.128906 19.6875 3.613281 19.359375 1.15625 18.703125 L 2.375 9.84375 C 4.238281 10.5 5.910156 10.828125 7.390625 10.828125 C 9.410156 10.828125 10.953125 10.484375 12.015625 9.796875 C 13.085938 9.117188 14.195312 7.382812 15.34375 4.59375 L 17.0625 0.328125 L 0.25 -39.375 Z M 11.078125 -39.375 "/></g></g></g><g fill="#ffffff" fill-opacity="1"><g transform="translate(150.248935, 63.055345)"><g><path d="M 22.234375 -40.359375 C 27.867188 -40.359375 32.078125 -39.003906 34.859375 -36.296875 C 37.648438 -33.585938 39.046875 -29.335938 39.046875 -23.546875 L 39.046875 0 L 30.1875 0 L 30.1875 -5.421875 L 29.9375 -5.421875 C 27.257812 -1.148438 23.050781 0.984375 17.3125 0.984375 C 13.039062 0.984375 9.578125 -0.117188 6.921875 -2.328125 C 4.273438 -4.546875 2.953125 -7.378906 2.953125 -10.828125 C 2.953125 -15.421875 4.863281 -18.851562 8.6875 -21.125 C 12.519531 -23.394531 18.675781 -24.53125 27.15625 -24.53125 L 30.1875 -24.53125 L 30.1875 -25.671875 C 30.1875 -27.972656 29.363281 -29.765625 27.71875 -31.046875 C 26.082031 -32.335938 23.898438 -32.984375 21.171875 -32.984375 C 17.117188 -32.984375 13.617188 -31.613281 10.671875 -28.875 L 5.5 -34.046875 C 9.601562 -38.253906 15.179688 -40.359375 22.234375 -40.359375 Z M 12.796875 -11.5625 C 12.796875 -9.875 13.492188 -8.59375 14.890625 -7.71875 C 16.285156 -6.84375 17.910156 -6.40625 19.765625 -6.40625 C 23.160156 -6.40625 25.648438 -7.238281 27.234375 -8.90625 C 28.816406 -10.570312 29.609375 -12.660156 29.609375 -15.171875 L 29.609375 -17.640625 L 26.75 -17.640625 C 17.445312 -17.640625 12.796875 -15.613281 12.796875 -11.5625 Z M 12.796875 -11.5625 "/></g></g></g><g fill="#ffffff" fill-opacity="1"><g transform="translate(190.196358, 63.055345)"><g/></g></g><g fill="#ffffff" fill-opacity="1"><g transform="translate(210.375072, 63.055345)"><g><path d="M 34.046875 -59.5625 C 42.191406 -59.5625 48.972656 -56.5 54.390625 -50.375 L 46.34375 -44.46875 C 42.738281 -48.289062 38.664062 -50.203125 34.125 -50.203125 C 28.269531 -50.203125 23.484375 -48.207031 19.765625 -44.21875 C 16.046875 -40.226562 14.1875 -35.304688 14.1875 -29.453125 C 14.1875 -23.160156 16.046875 -17.988281 19.765625 -13.9375 C 23.484375 -9.894531 28.269531 -7.875 34.125 -7.875 C 39.101562 -7.875 43.453125 -10.226562 47.171875 -14.9375 L 55.703125 -8.859375 C 53.179688 -5.304688 50.003906 -2.691406 46.171875 -1.015625 C 42.347656 0.648438 38.304688 1.484375 34.046875 1.484375 C 24.910156 1.484375 17.507812 -1.359375 11.84375 -7.046875 C 6.1875 -12.742188 3.359375 -19.992188 3.359375 -28.796875 C 3.359375 -37.929688 6.175781 -45.34375 11.8125 -51.03125 C 17.445312 -56.71875 24.859375 -59.5625 34.046875 -59.5625 Z M 34.046875 -59.5625 "/></g></g></g><g fill="#ffffff" fill-opacity="1"><g transform="translate(262.462594, 63.055345)"><g><path d="M 22.234375 -40.359375 C 27.867188 -40.359375 32.078125 -39.003906 34.859375 -36.296875 C 37.648438 -33.585938 39.046875 -29.335938 39.046875 -23.546875 L 39.046875 0 L 30.1875 0 L 30.1875 -5.421875 L 29.9375 -5.421875 C 27.257812 -1.148438 23.050781 0.984375 17.3125 0.984375 C 13.039062 0.984375 9.578125 -0.117188 6.921875 -2.328125 C 4.273438 -4.546875 2.953125 -7.378906 2.953125 -10.828125 C 2.953125 -15.421875 4.863281 -18.851562 8.6875 -21.125 C 12.519531 -23.394531 18.675781 -24.53125 27.15625 -24.53125 L 30.1875 -24.53125 L 30.1875 -25.671875 C 30.1875 -27.972656 29.363281 -29.765625 27.71875 -31.046875 C 26.082031 -32.335938 23.898438 -32.984375 21.171875 -32.984375 C 17.117188 -32.984375 13.617188 -31.613281 10.671875 -28.875 L 5.5 -34.046875 C 9.601562 -38.253906 15.179688 -40.359375 22.234375 -40.359375 Z M 12.796875 -11.5625 C 12.796875 -9.875 13.492188 -8.59375 14.890625 -7.71875 C 16.285156 -6.84375 17.910156 -6.40625 19.765625 -6.40625 C 23.160156 -6.40625 25.648438 -7.238281 27.234375 -8.90625 C 28.816406 -10.570312 29.609375 -12.660156 29.609375 -15.171875 L 29.609375 -17.640625 L 26.75 -17.640625 C 17.445312 -17.640625 12.796875 -15.613281 12.796875 -11.5625 Z M 12.796875 -11.5625 "/></g></g></g><g fill="#ffffff" fill-opacity="1"><g transform="translate(302.410017, 63.055345)"><g><path d="M 27.234375 -40.359375 C 28.054688 -40.359375 29.234375 -40.164062 30.765625 -39.78125 L 30.765625 -30.265625 C 29.066406 -30.765625 27.476562 -31.015625 26 -31.015625 C 22.78125 -31.015625 20.210938 -30.054688 18.296875 -28.140625 C 16.378906 -26.222656 15.421875 -23.679688 15.421875 -20.515625 L 15.421875 0 L 5.578125 0 L 5.578125 -39.375 L 15.421875 -39.375 L 15.421875 -33.140625 L 15.59375 -33.140625 C 16.6875 -35.441406 18.242188 -37.21875 20.265625 -38.46875 C 22.285156 -39.726562 24.609375 -40.359375 27.234375 -40.359375 Z M 27.234375 -40.359375 "/></g></g></g><g fill="#ffffff" fill-opacity="1"><g transform="translate(328.740811, 63.055345)"><g><path d="M 25.015625 -40.359375 C 30.921875 -40.359375 35.472656 -38.390625 38.671875 -34.453125 C 41.878906 -30.515625 43.484375 -25.375 43.484375 -19.03125 L 43.484375 -16.25 L 13.453125 -16.25 C 13.785156 -13.40625 14.921875 -11.132812 16.859375 -9.4375 C 18.796875 -7.738281 21.1875 -6.890625 24.03125 -6.890625 C 28.1875 -6.890625 31.71875 -8.664062 34.625 -12.21875 L 41.671875 -6.890625 C 37.410156 -1.640625 31.859375 0.984375 25.015625 0.984375 C 19.003906 0.984375 13.929688 -0.925781 9.796875 -4.75 C 5.671875 -8.582031 3.609375 -13.5625 3.609375 -19.6875 C 3.609375 -25.8125 5.671875 -30.785156 9.796875 -34.609375 C 13.929688 -38.441406 19.003906 -40.359375 25.015625 -40.359375 Z M 33.640625 -23.625 C 33.578125 -26.738281 32.613281 -29.078125 30.75 -30.640625 C 28.894531 -32.203125 26.492188 -32.984375 23.546875 -32.984375 C 20.585938 -32.984375 18.257812 -32.117188 16.5625 -30.390625 C 14.875 -28.671875 13.835938 -26.414062 13.453125 -23.625 Z M 33.640625 -23.625 "/></g></g></g><g fill="#ffffff" fill-opacity="1"><g transform="translate(371.723249, 63.055345)"><g><path d="M 25.015625 -40.359375 C 30.921875 -40.359375 35.472656 -38.390625 38.671875 -34.453125 C 41.878906 -30.515625 43.484375 -25.375 43.484375 -19.03125 L 43.484375 -16.25 L 13.453125 -16.25 C 13.785156 -13.40625 14.921875 -11.132812 16.859375 -9.4375 C 18.796875 -7.738281 21.1875 -6.890625 24.03125 -6.890625 C 28.1875 -6.890625 31.71875 -8.664062 34.625 -12.21875 L 41.671875 -6.890625 C 37.410156 -1.640625 31.859375 0.984375 25.015625 0.984375 C 19.003906 0.984375 13.929688 -0.925781 9.796875 -4.75 C 5.671875 -8.582031 3.609375 -13.5625 3.609375 -19.6875 C 3.609375 -25.8125 5.671875 -30.785156 9.796875 -34.609375 C 13.929688 -38.441406 19.003906 -40.359375 25.015625 -40.359375 Z M 33.640625 -23.625 C 33.578125 -26.738281 32.613281 -29.078125 30.75 -30.640625 C 28.894531 -32.203125 26.492188 -32.984375 23.546875 -32.984375 C 20.585938 -32.984375 18.257812 -32.117188 16.5625 -30.390625 C 14.875 -28.671875 13.835938 -26.414062 13.453125 -23.625 Z M 33.640625 -23.625 "/></g></g></g><g fill="#ffffff" fill-opacity="1"><g transform="translate(414.705688, 63.055345)"><g><path d="M 27.234375 -40.359375 C 28.054688 -40.359375 29.234375 -40.164062 30.765625 -39.78125 L 30.765625 -30.265625 C 29.066406 -30.765625 27.476562 -31.015625 26 -31.015625 C 22.78125 -31.015625 20.210938 -30.054688 18.296875 -28.140625 C 16.378906 -26.222656 15.421875 -23.679688 15.421875 -20.515625 L 15.421875 0 L 5.578125 0 L 5.578125 -39.375 L 15.421875 -39.375 L 15.421875 -33.140625 L 15.59375 -33.140625 C 16.6875 -35.441406 18.242188 -37.21875 20.265625 -38.46875 C 22.285156 -39.726562 24.609375 -40.359375 27.234375 -40.359375 Z M 27.234375 -40.359375 "/></g></g></g><g fill="#ffffff" fill-opacity="1"><g transform="translate(442.512993, 63.055345)"><g><path d="M 19.03125 -40.359375 C 25.488281 -40.359375 30.191406 -38.363281 33.140625 -34.375 L 26.578125 -28.46875 C 24.609375 -31.144531 22.039062 -32.484375 18.875 -32.484375 C 17.28125 -32.484375 15.921875 -32.097656 14.796875 -31.328125 C 13.679688 -30.566406 13.125 -29.554688 13.125 -28.296875 C 13.125 -26.390625 15.066406 -25.023438 18.953125 -24.203125 L 22.484375 -23.375 C 26.796875 -22.445312 29.851562 -21.007812 31.65625 -19.0625 C 33.46875 -17.125 34.375 -14.65625 34.375 -11.65625 C 34.375 -7.820312 32.84375 -4.753906 29.78125 -2.453125 C 26.71875 -0.160156 22.5625 0.984375 17.3125 0.984375 C 10.695312 0.984375 5.609375 -1.039062 2.046875 -5.09375 L 8.609375 -11.234375 C 10.304688 -9.378906 11.863281 -8.109375 13.28125 -7.421875 C 14.707031 -6.742188 16.269531 -6.40625 17.96875 -6.40625 C 19.769531 -6.40625 21.3125 -6.8125 22.59375 -7.625 C 23.882812 -8.445312 24.53125 -9.539062 24.53125 -10.90625 C 24.53125 -13.15625 22.503906 -14.742188 18.453125 -15.671875 C 13.203125 -16.867188 9.921875 -17.8125 8.609375 -18.5 C 7.296875 -19.1875 6.242188 -20.003906 5.453125 -20.953125 C 4.660156 -21.910156 4.097656 -22.953125 3.765625 -24.078125 C 3.441406 -25.203125 3.28125 -26.390625 3.28125 -27.640625 C 3.28125 -31.523438 4.769531 -34.613281 7.75 -36.90625 C 10.726562 -39.207031 14.488281 -40.359375 19.03125 -40.359375 Z M 19.03125 -40.359375 "/></g></g></g><g fill="#ffffff" fill-opacity="1"><g transform="translate(474.831825, 63.055345)"><g/></g></g><g fill="#ffffff" fill-opacity="1"><g transform="translate(495.010519, 63.055345)"><g><path d="M 16.578125 -58.078125 L 16.578125 -21.40625 C 16.578125 -17.53125 17.75 -14.390625 20.09375 -11.984375 C 22.445312 -9.578125 25.617188 -8.375 29.609375 -8.375 C 33.609375 -8.375 36.78125 -9.578125 39.125 -11.984375 C 41.476562 -14.390625 42.65625 -17.53125 42.65625 -21.40625 L 42.65625 -58.078125 L 53 -58.078125 L 53 -20.921875 C 53 -14.523438 50.863281 -9.191406 46.59375 -4.921875 C 42.332031 -0.648438 36.671875 1.484375 29.609375 1.484375 C 22.609375 1.484375 16.960938 -0.648438 12.671875 -4.921875 C 8.378906 -9.191406 6.234375 -14.523438 6.234375 -20.921875 L 6.234375 -58.078125 Z M 16.578125 -58.078125 "/></g></g></g><g fill="#ffffff" fill-opacity="1"><g transform="translate(550.133095, 63.055345)"><g><path d="M 34.203125 -58.078125 L 59.234375 0 L 47.421875 0 L 42 -13.296875 L 16.8125 -13.296875 L 11.5625 0 L 0 0 L 25.265625 -58.078125 Z M 20.34375 -22.15625 L 38.390625 -22.15625 L 29.453125 -45.78125 Z M 20.34375 -22.15625 "/></g></g></g><g fill="#ffffff" fill-opacity="1"><g transform="translate(605.255671, 63.055345)"><g><path d="M 44.953125 -58.078125 L 44.953125 -48.734375 L 16.8125 -48.734375 L 16.8125 -34.453125 L 43.484375 -34.453125 L 43.484375 -25.109375 L 16.8125 -25.109375 L 16.8125 -9.359375 L 46.4375 -9.359375 L 46.4375 0 L 6.484375 0 L 6.484375 -58.078125 Z M 44.953125 -58.078125 "/></g></g></g></g></g></g></g></g></g></svg>